SplineFontDB: 3.2
FontName: SingScript.sg_controlpics
FullName: SingScript.sg "controlpics" module
FamilyName: SingScript.sg
Weight: Regular
Copyright: Copyright (c) 2025, 05524F.sg (Singapore)
Version: v2
ItalicAngle: 0
UnderlinePosition: -100
UnderlineWidth: 67
Ascent: 600
Descent: 300
InvalidEm: 0
sfntRevision: 0x00010000
LayerCount: 2
Layer: 0 0 "Back" 1
Layer: 1 0 "Fore" 0
XUID: [1021 768 647112374 32286]
StyleMap: 0x0040
FSType: 0
OS2Version: 4
OS2_WeightWidthSlopeOnly: 0
OS2_UseTypoMetrics: 1
CreationTime: 1740441635
ModificationTime: 1753918860
PfmFamily: 65
TTFWeight: 400
TTFWidth: 5
LineGap: 81
VLineGap: 0
Panose: 3 0 5 3 0 0 0 0 0 0
OS2TypoAscent: 600
OS2TypoAOffset: 0
OS2TypoDescent: -300
OS2TypoDOffset: 0
OS2TypoLinegap: 81
OS2WinAscent: 590
OS2WinAOffset: 0
OS2WinDescent: 233
OS2WinDOffset: 0
HheadAscent: 590
HheadAOffset: 0
HheadDescent: -233
HheadDOffset: 0
OS2SubXSize: 585
OS2SubYSize: 630
OS2SubXOff: 0
OS2SubYOff: 126
OS2SupXSize: 585
OS2SupYSize: 630
OS2SupXOff: 0
OS2SupYOff: 432
OS2StrikeYSize: 44
OS2StrikeYPos: 232
OS2CapHeight: 467
OS2XHeight: 300
OS2Vendor: '5524'
OS2CodePages: 00000001.00000000
OS2UnicodeRanges: 80000003.10000000.00000000.00000000
MarkAttachClasses: 1
DEI: 91125
LangName: 1033 "" "" "" "" "" "Version v2"
Encoding: Custom
UnicodeInterp: none
NameList: AGL For New Fonts
DisplaySize: -48
AntiAlias: 1
FitToEm: 0
WidthSeparation: 50
WinInfo: 0 27 2
BeginPrivate: 6
BlueValues 21 [0 0 300 300 467 467]
OtherBlues 11 [-233 -233]
StdHW 4 [67]
StdVW 4 [67]
StemSnapH 33 [52 59 63 67 73 78 86 93 159 167]
StemSnapV 4 [67]
EndPrivate
TeXData: 1 0 0 346030 173015 115343 0 1048576 115343 783286 444596 497025 792723 393216 433062 380633 303038 157286 324010 404750 52429 2506097 1059062 262144
BeginChars: 42 42

StartChar: uni2400
Encoding: 0 9216 0
Width: 900
VWidth: 0
Flags: W
HStem: -83 45<70 830> 0 43<439.887 473.265 632.609 739.547> 338 45<70 830>
VStem: 25 45<-38 338> 122 44<0.196648 162.649> 298 44<97.672 310.885> 386 44<46.3489 288.395> 397 45<132.802 310.686> 518 44<129.988 310.885> 611 44<123.247 310.856> 830 45<-38 338>
LayerCount: 2
Fore
SplineSet
25 383 m 1xfce0
 875 383 l 1
 875 -83 l 1
 25 -83 l 1
 25 383 l 1xfce0
70 338 m 1
 70 -38 l 1
 830 -38 l 1
 830 338 l 1
 70 338 l 1
122 23 m 2
 122 27 l 1
 132 80 140 154 146 210 c 0
 150 251 153 283 156 291 c 0
 160 303 171 311 184 311 c 0
 213 311 226 283 258 151 c 0
 259 150 259 150 259 148 c 0
 260 145 260 145 279 69 c 1
 289 116 298 218 298 289 c 0
 298 301 308 311 320 311 c 0
 332 311 342 301 342 289 c 0
 342 221 337 144 329 97 c 0
 318 27 304 0 279 0 c 0
 252 0 243 21 206 175 c 1
 205 176 205 176 205 177 c 0
 196 216 194 226 192 231 c 1
 181 111 176 70 166 18 c 0
 164 8 154 0 144 0 c 0
 132 0 122 11 122 23 c 2
442 289 m 0xfde0
 442 276 439 243 436 210 c 0
 433 177 430 144 430 131 c 0
 430 88 434 62 443 49 c 0
 445 46 448 43 449 43 c 0
 484 43 516 158 518 289 c 0
 518 301 528 311 540 311 c 0
 552 311 562 301 562 289 c 0
 562 119 516 0 450 0 c 0
 407 0 386 42 386 131 c 0xfee0
 386 169 391 236 397 291 c 0
 398 302 408 311 419 311 c 0
 431 311 442 301 442 289 c 0xfde0
655 289 m 0
 655 287 654 277 652 260 c 0
 647 215 636 125 631 45 c 0
 632 44 632 45 633 45 c 0
 634 45 634 45 635 45 c 2
 639 45 l 2
 663 45 679 45 709 46 c 2
 718 46 l 2
 730 46 740 36 740 24 c 0
 740 12 731 2 719 1 c 0
 671 0 671 0 657 0 c 0
 604 0 585 8 585 31 c 2
 585 32 l 1
 590 124 597 187 611 292 c 0
 612 303 622 311 633 311 c 0
 645 311 655 301 655 289 c 0
EndSplineSet
EndChar

StartChar: uni2401
Encoding: 1 9217 1
Width: 900
VWidth: 0
Flags: W
HStem: -83 45<70 830> 0 44<150.132 227.364 378.236 492.339> 113 46<677 743.885> 267 44<243.985 293 293 321.862 418.161 544.498> 338 45<70 830>
VStem: 25 45<-38 338> 158 45<168.628 233.571> 240 44<53.3627 114.175> 318 44<61.2054 207.312> 555 45<128.939 255.917> 630 44<0.179291 115.284 159 309.998> 738 45<0.315147 110.897> 749 47<170.046 310.547> 830 45<-38 338>
LayerCount: 2
Fore
SplineSet
25 383 m 1xffe4
 875 383 l 1
 875 -83 l 1
 25 -83 l 1
 25 383 l 1xffe4
70 338 m 1
 70 -38 l 1
 830 -38 l 1
 830 338 l 1
 70 338 l 1
203 205 m 2
 203 182 224 166 244 150 c 0
 264 134 284 117 284 94 c 0
 284 47 242 0 199 0 c 0
 159 0 108 26 108 47 c 0
 108 59 118 69 130 69 c 0
 142 69 153 62 164 56 c 0
 175 50 187 44 199 44 c 0
 218 44 231 60 240 94 c 0
 240 97 231 106 214 120 c 0
 172 153 158 175 158 205 c 0
 158 252 196 282 292 311 c 0
 293 312 293 312 293 311 c 1
 299 311 l 2
 311 311 322 301 322 289 c 0
 322 274 319 272 290 263 c 0
 257 254 244 249 231 241 c 0
 214 230 204 219 203 210 c 2
 203 205 l 2
318 119 m 0
 318 240 381 310 489 311 c 2
 491 311 l 2
 560 311 600 274 600 210 c 0
 600 164 577 100 542 51 c 0
 519 18 480 0 436 0 c 0
 375 0 325 33 320 77 c 0
 318 91 318 98 318 119 c 0
490 267 m 2
 407 266 362 214 362 119 c 0
 362 106 363 99 365 82 c 0
 368 63 403 45 437 45 c 0
 466 45 491 57 506 77 c 0
 537 119 555 169 555 210 c 0
 555 250 535 267 491 267 c 2
 490 267 l 2
630 23 m 0
 630 34 631 95 632 156 c 0
 633 217 634 278 634 289 c 0
 634 301 644 311 656 311 c 0
 668 311 679 301 679 289 c 0
 679 268 679 251 677 159 c 1
 690 161 742 167 745 167 c 1
 745 175 l 2
 746 189 748 222 749 249 c 0
 750 270 751 288 751 290 c 0
 752 302 761 311 773 311 c 0
 785 311 796 301 796 289 c 2
 796 287 l 2xffec
 794 269 783 35 783 21 c 0
 782 9 773 0 761 0 c 0
 749 0 738 11 738 23 c 2
 738 26 l 2xfff4
 739 32 743 89 744 112 c 2
 744 122 l 1
 743 122 l 2
 740 122 732 120 715 118 c 0
 705 117 692 115 676 113 c 1
 676 105 l 2
 675 75 674 56 674 44 c 0
 674 37 674 32 674 29 c 2
 674 22 l 2
 674 10 664 0 652 0 c 0
 640 0 630 11 630 23 c 0
EndSplineSet
EndChar

StartChar: uni2402
Encoding: 2 9218 2
Width: 900
VWidth: 0
Flags: W
HStem: -83 45<70 830> 0 44<144.132 221.364> 258 44<341.144 424.231> 267 44<237.985 287 287 315.862 363.185 427 471 571.232> 338 45<70 830>
VStem: 25 45<-38 338> 152 45<168.628 233.571> 234 44<53.3627 114.175> 402 47<0.365234 198.725> 424 47<71.8561 265> 591 53<237.246 309.712> 830 45<-38 338>
LayerCount: 2
Fore
SplineSet
25 383 m 1xcf30
 875 383 l 1
 875 -83 l 1
 25 -83 l 1
 25 383 l 1xcf30
70 338 m 1
 70 -38 l 1
 830 -38 l 1
 830 338 l 1
 70 338 l 1
197 205 m 2
 197 182 218 166 238 150 c 0
 258 134 278 117 278 94 c 0
 278 47 236 0 193 0 c 0
 153 0 102 26 102 47 c 0
 102 59 112 69 124 69 c 0
 136 69 147 62 158 56 c 0
 169 50 181 44 193 44 c 0
 212 44 225 60 234 94 c 0
 234 97 225 106 208 120 c 0
 166 153 152 175 152 205 c 0
 152 252 190 282 286 311 c 0
 287 312 287 312 287 311 c 1
 293 311 l 2xdf30
 305 311 316 301 316 289 c 0
 316 274 313 272 284 263 c 0
 251 254 238 249 225 241 c 0
 208 230 198 219 197 210 c 2
 197 205 l 2
402 18 m 0xdfb0
 402 21 403 22 404 22 c 0
 405 22 405 23 405 26 c 0
 415 97 421 165 424 249 c 2
 424 252 l 2
 424 258 424 258 426 258 c 0
 427 258 427 258 427 265 c 1
 367 258 367 258 363 258 c 0
 351 258 341 268 341 280 c 0
 341 291 349 301 360 302 c 0xef70
 406 309 438 311 481 311 c 0
 533 311 538 311 551 309 c 0
 562 308 572 298 572 286 c 0
 572 274 561 264 549 264 c 2
 548 264 l 2
 529 266 507 267 481 267 c 2
 471 267 l 1xdf70
 471 210 460 91 449 19 c 0
 447 8 438 0 427 0 c 0
 412 0 402 7 402 18 c 0xdfb0
699 145 m 1
 730 79 748 54 758 41 c 0
 764 32 767 29 767 22 c 0
 767 10 757 0 745 0 c 0
 738 0 732 3 727 9 c 0
 706 36 690 62 669 104 c 1
 654 84 649 77 591 8 c 0
 585 2 581 0 575 0 c 0
 563 0 553 10 553 22 c 0
 553 31 555 32 566 45 c 0
 578 59 602 87 647 150 c 1
 609 239 591 285 591 289 c 0
 591 301 602 311 614 311 c 0
 629 311 631 309 644 276 c 0
 646 271 649 265 652 257 c 0
 657 245 663 229 671 209 c 2
 678 193 l 1
 712 238 733 265 765 303 c 0
 770 308 776 311 782 311 c 0xdf30
 794 311 804 301 804 289 c 0
 804 281 801 277 786 259 c 0
 772 242 749 214 710 160 c 0
 708 157 703 151 699 145 c 1
EndSplineSet
EndChar

StartChar: uni2403
Encoding: 3 9219 3
Width: 900
VWidth: 0
Flags: W
HStem: -83 45<70 830> 0 45<161 260.999> 13 44<261.139 288.803> 112 45<169 284.718> 267 44<183.188 302.797 355.185 419 463 563.232> 338 45<70 830>
VStem: 25 45<-38 338> 117 44<45 108.977> 394 47<0.365234 198.725> 416 47<71.8561 265> 589 53<237.246 309.712> 830 45<-38 338>
LayerCount: 2
Fore
SplineSet
25 383 m 1x9f30
 875 383 l 1
 875 -83 l 1
 25 -83 l 1
 25 383 l 1x9f30
70 338 m 1
 70 -38 l 1
 830 -38 l 1
 830 338 l 1
 70 338 l 1
161 45 m 1xdf30
 194 46 241 53 256 55 c 0
 259 55 261 56 261 56 c 0
 264 56 265 56 266 57 c 0
 278 57 289 47 289 35 c 0
 289 24 278 13 268 13 c 0xbf30
 173 0 173 0 151 0 c 2
 139 0 l 2
 127 0 117 10 117 22 c 2
 117 37 l 2
 117 94 125 179 141 285 c 0
 141 306 160 311 239 311 c 2
 267 311 l 2
 292 311 303 304 303 288 c 0
 303 276 292 266 280 266 c 2
 273 266 l 2
 252 267 249 267 241 267 c 2
 205 267 l 2
 204 267 204 267 197 266 c 0
 191 266 187 266 183 265 c 1
 173 200 171 183 169 157 c 1
 262 157 l 2
 274 157 285 147 285 135 c 0
 285 123 274 112 262 112 c 2
 165 112 l 1
 162 89 161 67 161 45 c 1xdf30
394 18 m 0xdfb0
 394 21 395 22 396 22 c 0
 397 22 397 23 397 26 c 0
 407 97 413 165 416 249 c 2
 416 252 l 2
 416 258 416 258 418 258 c 0
 419 258 419 258 419 265 c 1
 359 258 359 258 355 258 c 0
 343 258 333 268 333 280 c 0
 333 291 341 301 352 302 c 0
 398 309 430 311 473 311 c 0
 525 311 530 311 543 309 c 0
 554 308 564 298 564 286 c 0
 564 274 553 264 541 264 c 2
 540 264 l 2
 521 266 499 267 473 267 c 2
 463 267 l 1xdf70
 463 210 452 91 441 19 c 0
 439 8 430 0 419 0 c 0
 404 0 394 7 394 18 c 0xdfb0
697 145 m 1
 728 79 746 54 756 41 c 0
 762 32 765 29 765 22 c 0
 765 10 755 0 743 0 c 0
 736 0 730 3 725 9 c 0
 704 36 688 62 667 104 c 1
 652 84 647 77 589 8 c 0
 583 2 579 0 573 0 c 0
 561 0 551 10 551 22 c 0
 551 31 553 32 564 45 c 0
 576 59 600 87 645 150 c 1
 607 239 589 285 589 289 c 0
 589 301 600 311 612 311 c 0
 627 311 629 309 642 276 c 0
 644 271 647 265 650 257 c 0
 655 245 661 229 669 209 c 2
 676 193 l 1
 710 238 731 265 763 303 c 0
 768 308 774 311 780 311 c 0
 792 311 802 301 802 289 c 0
 802 281 799 277 784 259 c 0
 770 242 747 214 708 160 c 0
 706 157 701 151 697 145 c 1
EndSplineSet
EndChar

StartChar: uni2404
Encoding: 4 9220 4
Width: 900
VWidth: 0
Flags: W
HStem: -83 45<70 830> 0 45<141 240.999 358.749 474.664> 13 44<241.139 268.803> 112 45<149 264.718> 267 44<163.188 282.797 399.161 525.498 609.185 673 717 817.232> 338 45<70 830>
VStem: 25 45<-38 338> 97 44<45 108.977> 299 44<61.2054 207.312> 536 45<128.939 255.917> 648 47<0.365234 198.725> 670 47<71.8561 265> 830 45<-38 338>
LayerCount: 2
Fore
SplineSet
25 383 m 1x9fc8
 875 383 l 1
 875 -83 l 1
 25 -83 l 1
 25 383 l 1x9fc8
70 338 m 1
 70 -38 l 1
 830 -38 l 1
 830 338 l 1
 70 338 l 1
141 45 m 1xdfc8
 174 46 221 53 236 55 c 0
 239 55 241 56 241 56 c 0
 244 56 245 56 246 57 c 0
 258 57 269 47 269 35 c 0
 269 24 258 13 248 13 c 0xbfc8
 153 0 153 0 131 0 c 2
 119 0 l 2
 107 0 97 10 97 22 c 2
 97 37 l 2
 97 94 105 179 121 285 c 0
 121 306 140 311 219 311 c 2
 247 311 l 2
 272 311 283 304 283 288 c 0
 283 276 272 266 260 266 c 2
 253 266 l 2
 232 267 229 267 221 267 c 2
 185 267 l 2
 184 267 184 267 177 266 c 0
 171 266 167 266 163 265 c 1
 153 200 151 183 149 157 c 1
 242 157 l 2
 254 157 265 147 265 135 c 0
 265 123 254 112 242 112 c 2
 145 112 l 1
 142 89 141 67 141 45 c 1xdfc8
299 119 m 0
 299 240 362 310 470 311 c 2
 472 311 l 2
 541 311 581 274 581 210 c 0
 581 164 558 100 523 51 c 0
 500 18 461 0 417 0 c 0xdfc8
 356 0 306 33 301 77 c 0
 299 91 299 98 299 119 c 0
471 267 m 2
 388 266 343 214 343 119 c 0
 343 106 344 99 346 82 c 0
 349 63 384 45 418 45 c 0
 447 45 472 57 487 77 c 0
 518 119 536 169 536 210 c 0
 536 250 516 267 472 267 c 2
 471 267 l 2
648 18 m 0xdfe8
 648 21 649 22 650 22 c 0
 651 22 651 23 651 26 c 0
 661 97 667 165 670 249 c 2
 670 252 l 2
 670 258 670 258 672 258 c 0
 673 258 673 258 673 265 c 1
 613 258 613 258 609 258 c 0
 597 258 587 268 587 280 c 0
 587 291 595 301 606 302 c 0
 652 309 684 311 727 311 c 0
 779 311 784 311 797 309 c 0
 808 308 818 298 818 286 c 0
 818 274 807 264 795 264 c 2
 794 264 l 2
 775 266 753 267 727 267 c 2
 717 267 l 1xdfd8
 717 210 706 91 695 19 c 0
 693 8 684 0 673 0 c 0
 658 0 648 7 648 18 c 0xdfe8
EndSplineSet
EndChar

StartChar: uni2405
Encoding: 5 9221 5
Width: 900
VWidth: 0
Flags: W
HStem: -83 45<70 830> 0 45<155 254.999> 13 44<255.139 282.803> 24 45<590.809 640.573> 112 45<163 278.718> 267 44<177.188 296.797 653.572 689.441> 338 45<70 830>
VStem: 25 45<-38 338> 111 44<45 108.977> 307 44<0.196648 162.649> 483 44<97.672 310.885> 690 44<147.765 266.531> 830 45<-38 338>
LayerCount: 2
Fore
SplineSet
25 383 m 1x8ff8
 875 383 l 1
 875 -83 l 1
 25 -83 l 1
 25 383 l 1x8ff8
70 338 m 1
 70 -38 l 1
 830 -38 l 1
 830 338 l 1
 70 338 l 1
155 45 m 1xcff8
 188 46 235 53 250 55 c 0
 253 55 255 56 255 56 c 0
 258 56 259 56 260 57 c 0
 272 57 283 47 283 35 c 0
 283 24 272 13 262 13 c 0xaff8
 167 0 167 0 145 0 c 2
 133 0 l 2
 121 0 111 10 111 22 c 2
 111 37 l 2
 111 94 119 179 135 285 c 0
 135 306 154 311 233 311 c 2
 261 311 l 2
 286 311 297 304 297 288 c 0
 297 276 286 266 274 266 c 2
 267 266 l 2
 246 267 243 267 235 267 c 2
 199 267 l 2
 198 267 198 267 191 266 c 0
 185 266 181 266 177 265 c 1
 167 200 165 183 163 157 c 1
 256 157 l 2
 268 157 279 147 279 135 c 0
 279 123 268 112 256 112 c 2
 159 112 l 1
 156 89 155 67 155 45 c 1xcff8
307 23 m 2
 307 27 l 1
 317 80 325 154 331 210 c 0
 335 251 338 283 341 291 c 0
 345 303 356 311 369 311 c 0
 398 311 411 283 443 151 c 0
 444 150 444 150 444 148 c 0
 445 145 445 145 464 69 c 1x9ff8
 474 116 483 218 483 289 c 0
 483 301 493 311 505 311 c 0
 517 311 527 301 527 289 c 0
 527 221 522 144 514 97 c 0
 503 27 489 0 464 0 c 0
 437 0 428 21 391 175 c 1
 390 176 390 176 390 177 c 0
 381 216 379 226 377 231 c 1
 366 111 361 70 351 18 c 0
 349 8 339 0 329 0 c 0xcff8
 317 0 307 11 307 23 c 2
642 155 m 0
 651 155 656 151 667 137 c 1
 681 176 690 218 690 244 c 0
 690 249 690 249 687 267 c 1
 646 266 597 172 590 81 c 1
 591 81 l 1
 596 73 603 69 610 69 c 0
 621 69 634 78 646 95 c 1
 622 123 620 125 620 132 c 0
 620 144 630 155 642 155 c 0
546 80 m 0
 546 189 621 311 688 311 c 0
 719 311 734 289 734 244 c 0
 734 204 721 150 700 100 c 1
 761 31 761 31 761 22 c 0
 761 10 751 0 739 0 c 0xcff8
 731 0 726 2 722 7 c 0
 717 13 713 18 707 24 c 0
 699 32 690 42 676 60 c 1
 657 37 633 24 610 24 c 0
 577 24 546 52 546 80 c 0
EndSplineSet
EndChar

StartChar: uni2406
Encoding: 6 9222 6
Width: 900
VWidth: 0
Flags: W
HStem: -83 45<70 830> 0 45<399.187 495.402> 20 48<448.503 534.906> 103 44<221.509 258 259 267> 338 45<70 830>
VStem: 25 45<-38 338> 135 43<0.155731 26> 284 44<0.1441 99.9951> 354 44<46.541 115.741> 583 45<189 310.685> 830 45<-38 338>
LayerCount: 2
Fore
SplineSet
398 65 m 1028x9fe0
25 383 m 1
 875 383 l 1
 875 -83 l 1
 25 -83 l 1
 25 383 l 1
70 338 m 1
 70 -38 l 1
 830 -38 l 1
 830 338 l 1
 70 338 l 1
267 147 m 1
 264 177 259 200 251 229 c 1
 240 203 232 181 221 145 c 1
 232 147 234 147 256 147 c 2
 267 147 l 1
284 19 m 0
 284 27 284 31 282 40 c 0
 280 50 277 67 273 103 c 1
 259 103 l 1
 258 102 l 1
 249 102 l 2
 218 101 216 101 206 98 c 1
 201 79 196 64 178 15 c 0
 175 6 166 0 157 0 c 0
 145 0 135 11 135 23 c 0
 135 26 136 26 136 26 c 0
 136 26 137 27 137 30 c 0
 149 61 158 92 167 123 c 0
 183 179 201 236 235 299 c 0
 240 307 247 311 255 311 c 0
 264 311 272 306 275 297 c 0
 300 226 306 195 327 33 c 0
 327 32 328 31 328 30 c 0
 328 29 328 29 328 28 c 0
 328 25 328 24 329 23 c 0
 329 11 318 0 306 0 c 0xdfe0
 295 0 285 8 284 19 c 0
429 45 m 0
 440 45 455 50 471 56 c 0
 487 62 502 68 513 68 c 0xbfe0
 525 68 536 57 536 45 c 0xdfe0
 536 34 521 20 510 20 c 1xbfe0
 474 5 452 0 429 0 c 0
 388 0 354 30 354 66 c 0
 354 112 429 230 506 305 c 0
 510 309 516 311 522 311 c 0
 534 311 544 301 544 289 c 0
 544 283 541 277 537 273 c 0
 474 212 398 99 398 66 c 1
 402 51 411 45 429 45 c 0
623 189 m 1
 689 228 709 264 721 286 c 0
 729 300 734 309 746 309 c 0
 758 309 769 298 769 286 c 0
 769 254 707 188 639 146 c 1
 652 133 670 118 690 102 c 0
 727 73 765 42 765 26 c 0
 765 14 755 4 743 4 c 0
 734 4 734 4 724 14 c 0
 713 25 688 50 621 103 c 1
 620 104 l 1
 618 105 l 1
 613 21 l 2
 612 9 603 0 591 0 c 0xdfe0
 579 0 569 11 569 23 c 0
 570 25 576 140 583 290 c 0
 584 302 593 311 605 311 c 0
 617 311 628 301 628 289 c 0
 628 288 628 280 627 268 c 0
 626 248 624 217 623 189 c 1
EndSplineSet
EndChar

StartChar: uni2407
Encoding: 7 9223 7
Width: 900
VWidth: 0
Flags: W
HStem: -83 45<70 830> 0 45<234 263.954 409 508.999 610.609 717.547> 13 44<509.139 536.803> 112 45<417 532.718> 266 45<258 263 264 314.125 431.188 550.797> 338 45<70 830>
VStem: 25 45<-38 338> 267 45<55.3202 93.526> 316 47<233.015 264.885> 365 44<45 108.977> 589 44<123.247 310.856> 830 45<-38 338>
LayerCount: 2
Fore
SplineSet
25 383 m 1x9ff0
 875 383 l 1
 875 -83 l 1
 25 -83 l 1
 25 383 l 1x9ff0
70 338 m 1
 70 -38 l 1
 830 -38 l 1
 830 338 l 1
 70 338 l 1
240 101 m 1
 240 97 l 2
 238 91 236 74 234 49 c 1
 240 49 262 61 267 67 c 1
 267 69 l 2
 265 75 259 82 240 101 c 1
268 267 m 2
 264 267 l 1
 263 266 l 1
 258 266 l 1
 258 260 251 197 250 189 c 1
 267 198 310 244 316 260 c 0
 316 261 316 261 315 261 c 0
 300 265 285 267 268 267 c 2
188 28 m 0
 188 32 195 94 202 156 c 0
 209 218 215 281 215 285 c 0
 217 304 232 311 268 311 c 0
 327 311 363 295 363 268 c 0
 363 234 339 204 266 145 c 1
 265 144 l 2
 265 143 265 143 264 143 c 0
 263 143 263 143 262 142 c 1
 279 125 279 125 301 96 c 0
 310 85 312 80 312 69 c 0
 312 37 263 0 219 0 c 0xdff0
 200 0 188 11 188 28 c 0
409 45 m 1
 442 46 489 53 504 55 c 0
 507 55 509 56 509 56 c 0
 512 56 513 56 514 57 c 0
 526 57 537 47 537 35 c 0
 537 24 526 13 516 13 c 0xbff0
 421 0 421 0 399 0 c 2
 387 0 l 2
 375 0 365 10 365 22 c 2
 365 37 l 2
 365 94 373 179 389 285 c 0
 389 306 408 311 487 311 c 2
 515 311 l 2
 540 311 551 304 551 288 c 0
 551 276 540 266 528 266 c 2
 521 266 l 2
 500 267 497 267 489 267 c 2
 453 267 l 2
 452 267 452 267 445 266 c 0
 439 266 435 266 431 265 c 1
 421 200 419 183 417 157 c 1
 510 157 l 2
 522 157 533 147 533 135 c 0
 533 123 522 112 510 112 c 2
 413 112 l 1
 410 89 409 67 409 45 c 1
633 289 m 0
 633 287 632 277 630 260 c 0
 625 215 614 125 609 45 c 0
 610 44 610 45 611 45 c 0
 612 45 612 45 613 45 c 2
 617 45 l 2
 641 45 657 45 687 46 c 2
 696 46 l 2
 708 46 718 36 718 24 c 0
 718 12 709 2 697 1 c 0
 649 0 649 0 635 0 c 0xdff0
 582 0 563 8 563 31 c 2
 563 32 l 1
 568 124 575 187 589 292 c 0
 590 303 600 311 611 311 c 0
 623 311 633 301 633 289 c 0
EndSplineSet
EndChar

StartChar: uni2408
Encoding: 8 9224 8
Width: 900
VWidth: 0
Flags: W
HStem: -83 45<70 830> 0 44<324 352.02 468.132 545.364> 266 45<348 353 354 404.125 558.512 611 611 639.862> 338 45<70 830>
VStem: 25 45<-38 338> 357 45<55.3202 93.526> 406 47<233.015 264.885> 476 45<168.628 233.571> 558 44<53.3627 114.175> 830 45<-38 338>
LayerCount: 2
Fore
SplineSet
25 383 m 1
 875 383 l 1
 875 -83 l 1
 25 -83 l 1
 25 383 l 1
70 338 m 1
 70 -38 l 1
 830 -38 l 1
 830 338 l 1
 70 338 l 1
330 101 m 1
 330 97 l 2
 328 91 326 74 324 49 c 1
 330 49 352 61 357 67 c 1
 357 69 l 2
 355 75 349 82 330 101 c 1
358 267 m 2
 354 267 l 1
 353 266 l 1
 348 266 l 1
 348 260 341 197 340 189 c 1
 357 198 400 244 406 260 c 0
 406 261 406 261 405 261 c 0
 390 265 375 267 358 267 c 2
278 28 m 0
 278 32 285 94 292 156 c 0
 299 218 305 281 305 285 c 0
 307 304 322 311 358 311 c 0
 417 311 453 295 453 268 c 0
 453 234 429 204 356 145 c 1
 355 144 l 2
 355 143 355 143 354 143 c 0
 353 143 353 143 352 142 c 1
 369 125 369 125 391 96 c 0
 400 85 402 80 402 69 c 0
 402 37 353 0 309 0 c 0
 290 0 278 11 278 28 c 0
521 205 m 2
 521 182 542 166 562 150 c 0
 582 134 602 117 602 94 c 0
 602 47 560 0 517 0 c 0
 477 0 426 26 426 47 c 0
 426 59 436 69 448 69 c 0
 460 69 471 62 482 56 c 0
 493 50 505 44 517 44 c 0
 536 44 549 60 558 94 c 0
 558 97 549 106 532 120 c 0
 490 153 476 175 476 205 c 0
 476 252 514 282 610 311 c 0
 611 312 611 312 611 311 c 1
 617 311 l 2
 629 311 640 301 640 289 c 0
 640 274 637 272 608 263 c 0
 575 254 562 249 549 241 c 0
 532 230 522 219 521 210 c 2
 521 205 l 2
EndSplineSet
EndChar

StartChar: uni2409
Encoding: 9 9225 9
Width: 900
VWidth: 0
Flags: W
HStem: -83 45<70 830> 0 21G<261 273 370 382 517.5 530.5> 113 46<292 358.885> 258 44<439.144 522.231> 267 44<461.185 525 569 669.232> 338 45<70 830>
VStem: 25 45<-38 338> 245 44<0.179291 115.284 159 309.998> 353 45<0.315147 110.897> 364 47<170.046 310.547> 500 47<0.365234 198.725> 522 47<71.8561 265> 830 45<-38 338>
LayerCount: 2
Fore
SplineSet
25 383 m 1xe708
 875 383 l 1
 875 -83 l 1
 25 -83 l 1
 25 383 l 1xe708
70 338 m 1
 70 -38 l 1
 830 -38 l 1
 830 338 l 1
 70 338 l 1
245 23 m 0
 245 34 246 95 247 156 c 0
 248 217 249 278 249 289 c 0
 249 301 259 311 271 311 c 0
 283 311 294 301 294 289 c 0
 294 268 294 251 292 159 c 1
 305 161 357 167 360 167 c 1
 360 175 l 2
 361 189 363 222 364 249 c 0
 365 270 366 288 366 290 c 0
 367 302 376 311 388 311 c 0
 400 311 411 301 411 289 c 2
 411 287 l 2xef48
 409 269 398 35 398 21 c 0
 397 9 388 0 376 0 c 0
 364 0 353 11 353 23 c 2
 353 26 l 2xef88
 354 32 358 89 359 112 c 2
 359 122 l 1
 358 122 l 2
 355 122 347 120 330 118 c 0
 320 117 307 115 291 113 c 1
 291 105 l 2
 290 75 289 56 289 44 c 0
 289 37 289 32 289 29 c 2
 289 22 l 2
 289 10 279 0 267 0 c 0
 255 0 245 11 245 23 c 0
500 18 m 0xef28
 500 21 501 22 502 22 c 0
 503 22 503 23 503 26 c 0
 513 97 519 165 522 249 c 2
 522 252 l 2
 522 258 522 258 524 258 c 0
 525 258 525 258 525 265 c 1
 465 258 465 258 461 258 c 0
 449 258 439 268 439 280 c 0
 439 291 447 301 458 302 c 0xf718
 504 309 536 311 579 311 c 0
 631 311 636 311 649 309 c 0
 660 308 670 298 670 286 c 0
 670 274 659 264 647 264 c 2
 646 264 l 2
 627 266 605 267 579 267 c 2
 569 267 l 1xef18
 569 210 558 91 547 19 c 0
 545 8 536 0 525 0 c 0
 510 0 500 7 500 18 c 0xef28
EndSplineSet
EndChar

StartChar: uni240A
Encoding: 10 9226 10
Width: 900
VWidth: 0
Flags: W
HStem: -83 45<70 830> 1 45<337.609 444.547> 138 45<517 532 534 627.743> 266 45<523.261 636.821> 338 45<70 830>
VStem: 25 45<-38 338> 316 44<124.247 311.856> 472 47<0.496094 138.987 182 261.715> 830 45<-38 338>
LayerCount: 2
Fore
SplineSet
25 383 m 1
 875 383 l 1
 875 -83 l 1
 25 -83 l 1
 25 383 l 1
70 338 m 1
 70 -38 l 1
 830 -38 l 1
 830 338 l 1
 70 338 l 1
360 290 m 0
 360 288 359 278 357 261 c 0
 352 216 341 126 336 46 c 0
 337 45 337 46 338 46 c 0
 339 46 339 46 340 46 c 2
 344 46 l 2
 368 46 384 46 414 47 c 2
 423 47 l 2
 435 47 445 37 445 25 c 0
 445 13 436 3 424 2 c 0
 376 1 376 1 362 1 c 0
 309 1 290 9 290 32 c 2
 290 33 l 1
 295 125 302 188 316 293 c 0
 317 304 327 312 338 312 c 0
 350 312 360 302 360 290 c 0
522 262 m 1
 522 260 l 2
 522 257 521 255 521 253 c 0
 520 248 520 242 519 226 c 2
 519 223 l 2
 519 213 519 208 518 200 c 0
 518 197 518 195 518 192 c 0
 518 189 517 186 517 183 c 2
 517 182 l 1
 531 182 l 2
 532 182 l 0
 534 183 l 2
 606 183 l 2
 618 183 628 173 628 161 c 0
 628 149 619 139 607 138 c 2
 590 138 l 2
 566 138 563 138 556 139 c 2
 547 139 l 2
 529 139 527 139 516 137 c 1
 516 125 l 2
 516 86 517 55 519 25 c 2
 519 23 l 2
 519 11 508 0 496 0 c 0
 484 0 475 9 474 21 c 0
 472 45 472 53 472 125 c 0
 472 187 474 237 479 284 c 0
 480 294 488 303 498 304 c 2
 500 304 l 1
 527 309 558 311 588 311 c 0
 626 311 637 306 637 288 c 0
 637 276 627 265 615 265 c 2
 612 265 l 2
 611 265 611 266 610 266 c 0
 609 266 608 266 607 266 c 2
 601 266 l 2
 597 267 596 267 588 267 c 0
 569 267 549 265 522 262 c 1
EndSplineSet
EndChar

StartChar: uni240B
Encoding: 11 9227 11
Width: 900
VWidth: 0
Flags: W
HStem: -83 45<70 830> 0 21G<315.5 338.5 555.5 568.5> 258 44<477.144 560.231> 267 44<499.185 563 607 707.232> 338 45<70 830>
VStem: 25 45<-38 338> 401 44<282 310.727> 538 47<0.365234 198.725> 560 47<71.8561 265> 830 45<-38 338>
LayerCount: 2
Fore
SplineSet
25 383 m 1xce40
 875 383 l 1
 875 -83 l 1
 25 -83 l 1
 25 383 l 1xce40
70 338 m 1
 70 -38 l 1
 830 -38 l 1
 830 338 l 1
 70 338 l 1
443 281 m 1
 432 253 428 241 406 162 c 0
 406 160 406 160 405 159 c 0
 358 16 350 0 327 0 c 0
 304 0 296 19 253 175 c 0
 234 243 222 283 219 289 c 0
 219 301 229 311 241 311 c 0
 259 311 262 305 284 228 c 0
 292 193 304 154 329 76 c 1
 337 97 347 129 358 166 c 0
 371 207 386 254 401 297 c 0
 404 305 412 311 422 311 c 0xde40
 434 311 445 301 445 289 c 0
 445 286 445 286 444 283 c 0
 444 282 444 282 443 282 c 1
 443 281 l 1
538 18 m 0xdf40
 538 21 539 22 540 22 c 0
 541 22 541 23 541 26 c 0
 551 97 557 165 560 249 c 2
 560 252 l 2
 560 258 560 258 562 258 c 0
 563 258 563 258 563 265 c 1
 503 258 503 258 499 258 c 0
 487 258 477 268 477 280 c 0
 477 291 485 301 496 302 c 0xeec0
 542 309 574 311 617 311 c 0
 669 311 674 311 687 309 c 0
 698 308 708 298 708 286 c 0
 708 274 697 264 685 264 c 2
 684 264 l 2
 665 266 643 267 617 267 c 2
 607 267 l 1xdec0
 607 210 596 91 585 19 c 0
 583 8 574 0 563 0 c 0
 548 0 538 7 538 18 c 0xdf40
EndSplineSet
EndChar

StartChar: uni240C
Encoding: 12 9228 12
Width: 900
VWidth: 0
Flags: W
HStem: -83 45<70 830> 0 21G<297 309 483 495> 138 45<324 340 341 434.743 510 526 527 620.743> 262 42<329 393.593 515 579.593> 266 45<330.261 443.821 516.261 629.821> 338 45<70 830>
VStem: 25 45<-38 338> 279 47<0.496094 138.987 182 261.715> 465 47<0.496094 138.987 182 261.715> 830 45<-38 338>
LayerCount: 2
Fore
SplineSet
25 383 m 1xe7c0
 875 383 l 1
 875 -83 l 1
 25 -83 l 1
 25 383 l 1xe7c0
70 338 m 1
 70 -38 l 1
 830 -38 l 1
 830 338 l 1
 70 338 l 1
329 262 m 1xf7c0
 329 260 l 2
 329 257 328 255 328 253 c 0
 327 248 327 242 326 226 c 2
 326 223 l 2
 326 213 326 208 325 200 c 0
 325 197 324 195 324 192 c 0
 324 189 324 186 324 183 c 2
 324 182 l 1
 338 182 l 2
 340 182 l 0
 341 183 l 2
 413 183 l 2
 425 183 435 173 435 161 c 0
 435 149 426 139 414 138 c 2
 397 138 l 2
 373 138 370 138 363 139 c 2
 354 139 l 2
 336 139 334 139 323 137 c 1
 323 125 l 2
 323 86 324 55 326 25 c 2
 326 23 l 2
 326 11 315 0 303 0 c 0
 291 0 282 9 281 21 c 0
 279 45 279 53 279 125 c 0
 279 187 281 237 286 284 c 0
 287 294 295 303 305 304 c 2
 307 304 l 1xf7c0
 334 309 365 311 395 311 c 0
 433 311 444 306 444 288 c 0
 444 276 434 265 422 265 c 2
 419 265 l 2
 418 265 417 266 416 266 c 0
 415 266 415 266 414 266 c 2
 408 266 l 2xefc0
 404 267 403 267 395 267 c 0
 376 267 356 265 329 262 c 1xf7c0
515 262 m 1
 515 260 l 2
 515 257 514 255 514 253 c 0
 513 248 513 242 512 226 c 2
 512 223 l 2
 512 213 512 208 511 200 c 0
 511 197 510 195 510 192 c 0
 510 189 510 186 510 183 c 2
 510 182 l 1
 524 182 l 2
 526 182 l 0
 527 183 l 2
 599 183 l 2
 611 183 621 173 621 161 c 0
 621 149 612 139 600 138 c 2
 583 138 l 2
 559 138 556 138 549 139 c 2
 540 139 l 2
 522 139 520 139 509 137 c 1
 509 125 l 2
 509 86 510 55 512 25 c 2
 512 23 l 2
 512 11 501 0 489 0 c 0
 477 0 468 9 467 21 c 0
 465 45 465 53 465 125 c 0
 465 187 467 237 472 284 c 0
 473 294 481 303 491 304 c 2
 493 304 l 1xf7c0
 520 309 551 311 581 311 c 0
 619 311 630 306 630 288 c 0
 630 276 620 265 608 265 c 2
 605 265 l 2
 604 265 603 266 602 266 c 0
 601 266 601 266 600 266 c 2
 594 266 l 2xefc0
 590 267 589 267 581 267 c 0
 562 267 542 265 515 262 c 1
EndSplineSet
EndChar

StartChar: uni240D
Encoding: 13 9229 13
Width: 900
VWidth: 0
Flags: W
HStem: -83 45<70 830> 0 45<293.187 389.402> 20 48<342.503 428.906> 267 44<529.458 604.366> 338 45<70 830>
VStem: 25 45<-38 338> 248 44<46.541 115.741> 470 45<0.909668 97 131 263.532> 615 45<183.55 254.616> 830 45<-38 338>
LayerCount: 2
Fore
SplineSet
292 65 m 1028x9fc0
25 383 m 1
 875 383 l 1
 875 -83 l 1
 25 -83 l 1
 25 383 l 1
70 338 m 1
 70 -38 l 1
 830 -38 l 1
 830 338 l 1
 70 338 l 1
323 45 m 0xdfc0
 334 45 349 50 365 56 c 0
 381 62 396 68 407 68 c 0xbfc0
 419 68 430 57 430 45 c 0xdfc0
 430 34 415 20 404 20 c 1xbfc0
 368 5 346 0 323 0 c 0
 282 0 248 30 248 66 c 0
 248 112 323 230 400 305 c 0
 404 309 410 311 416 311 c 0
 428 311 438 301 438 289 c 0
 438 283 435 277 431 273 c 0
 368 212 292 99 292 66 c 1
 296 51 305 45 323 45 c 0xdfc0
565 108 m 1
 570 101 579 92 589 82 c 0
 609 61 633 37 633 22 c 0
 633 10 623 0 611 0 c 0
 603 0 597 4 593 10 c 0
 576 35 556 55 539 72 c 0
 530 81 522 89 515 97 c 1
 515 83 512 25 511 21 c 0
 510 9 501 0 489 0 c 0xdfc0
 472 0 468 6 468 36 c 0
 468 40 468 44 468 48 c 0
 468 52 469 57 469 61 c 0
 469 65 470 68 470 72 c 0
 470 76 470 78 470 82 c 2
 470 107 l 2
 471 182 475 217 489 282 c 0
 493 301 511 311 541 311 c 0
 609 311 660 274 660 224 c 0
 660 179 629 141 565 108 c 1
515 131 m 1
 521 137 531 142 544 149 c 0
 574 165 615 187 615 224 c 0
 615 250 585 267 541 267 c 0
 533 267 533 267 531 266 c 0
 519 213 516 183 515 131 c 1
EndSplineSet
EndChar

StartChar: uni240E
Encoding: 14 9230 14
Width: 900
VWidth: 0
Flags: W
HStem: -83 45<70 830> 0 44<246.132 323.364 467.236 581.339> 267 44<339.985 389 389 417.862 507.161 633.498> 338 45<70 830>
VStem: 25 45<-38 338> 254 45<168.628 233.571> 336 44<53.3627 114.175> 407 44<61.2054 207.312> 644 45<128.939 255.917> 830 45<-38 338>
LayerCount: 2
Fore
SplineSet
25 383 m 1
 875 383 l 1
 875 -83 l 1
 25 -83 l 1
 25 383 l 1
70 338 m 1
 70 -38 l 1
 830 -38 l 1
 830 338 l 1
 70 338 l 1
299 205 m 2
 299 182 320 166 340 150 c 0
 360 134 380 117 380 94 c 0
 380 47 338 0 295 0 c 0
 255 0 204 26 204 47 c 0
 204 59 214 69 226 69 c 0
 238 69 249 62 260 56 c 0
 271 50 283 44 295 44 c 0
 314 44 327 60 336 94 c 0
 336 97 327 106 310 120 c 0
 268 153 254 175 254 205 c 0
 254 252 292 282 388 311 c 0
 389 312 389 312 389 311 c 1
 395 311 l 2
 407 311 418 301 418 289 c 0
 418 274 415 272 386 263 c 0
 353 254 340 249 327 241 c 0
 310 230 300 219 299 210 c 2
 299 205 l 2
407 119 m 0
 407 240 470 310 578 311 c 2
 580 311 l 2
 649 311 689 274 689 210 c 0
 689 164 666 100 631 51 c 0
 608 18 569 0 525 0 c 0
 464 0 414 33 409 77 c 0
 407 91 407 98 407 119 c 0
579 267 m 2
 496 266 451 214 451 119 c 0
 451 106 452 99 454 82 c 0
 457 63 492 45 526 45 c 0
 555 45 580 57 595 77 c 0
 626 119 644 169 644 210 c 0
 644 250 624 267 580 267 c 2
 579 267 l 2
EndSplineSet
EndChar

StartChar: uni240F
Encoding: 15 9231 15
Width: 900
VWidth: 0
Flags: W
HStem: -83 45<70 830> 0 44<242.132 319.364 473 491.916 638.177 688.612> 263 54<343.341 385 385 412.094> 273 44<569.277 636 637 662.885> 338 45<70 830>
VStem: 25 45<-38 338> 250 45<168.628 233.571> 332 44<53.3627 114.175> 523 46<106.028 267> 830 45<-38 338>
LayerCount: 2
Fore
SplineSet
25 383 m 1xcfc0
 875 383 l 1
 875 -83 l 1
 25 -83 l 1
 25 383 l 1xcfc0
70 338 m 1
 70 -38 l 1
 830 -38 l 1
 830 338 l 1
 70 338 l 1
295 205 m 2
 295 182 316 166 336 150 c 0
 356 134 376 117 376 94 c 0
 376 47 334 0 291 0 c 0
 251 0 200 26 200 47 c 0
 200 59 210 69 222 69 c 0
 234 69 245 62 256 56 c 0
 267 50 279 44 291 44 c 0
 310 44 323 60 332 94 c 0
 332 97 323 106 306 120 c 0
 264 153 250 175 250 205 c 0
 250 252 288 282 384 311 c 0
 385 312 385 312 385 311 c 1
 391 311 l 2
 403 311 414 301 414 289 c 0
 414 274 411 272 382 263 c 0xefc0
 349 254 336 249 323 241 c 0
 306 230 296 219 295 210 c 2
 295 205 l 2
471 47 m 1
 473 45 l 1
 473 46 473 46 474 46 c 0
 482 49 487 53 493 59 c 1
 485 58 478 54 471 47 c 1
641 272 m 2
 637 272 l 1
 636 273 l 1
 603 273 l 2xdfc0
 575 273 575 273 569 272 c 1
 569 269 l 1
 564 202 557 136 551 97 c 1
 580 88 602 79 625 69 c 0
 641 62 657 56 675 49 c 0
 685 45 691 37 691 29 c 0
 691 17 680 6 668 6 c 0
 660 6 641 14 618 24 c 0
 594 34 565 47 541 53 c 1
 528 24 496 0 471 0 c 0
 447 0 425 24 425 49 c 0
 425 78 463 104 505 104 c 2
 507 104 l 1
 513 147 519 207 523 266 c 0
 523 267 523 267 502 267 c 0
 475 264 470 264 467 263 c 0xefc0
 455 263 444 273 444 285 c 0
 444 296 452 306 463 307 c 0
 531 315 563 317 603 317 c 2
 641 317 l 2xdfc0
 653 317 663 307 663 295 c 0
 663 283 653 272 641 272 c 2
EndSplineSet
EndChar

StartChar: uni2410
Encoding: 16 9232 16
Width: 900
VWidth: 0
Flags: W
HStem: -83 45<70 830> 0 45<410.609 517.547 583 682.999> 13 44<683.139 710.803> 112 45<591 706.718> 267 44<238.157 294.245 605.188 724.797> 338 45<70 830>
VStem: 25 45<-38 338> 304 45<149.866 255.84> 389 44<123.247 310.856> 539 44<45 108.977> 830 45<-38 338>
LayerCount: 2
Fore
SplineSet
25 383 m 1x9fe0
 875 383 l 1
 875 -83 l 1
 25 -83 l 1
 25 383 l 1x9fe0
70 338 m 1
 70 -38 l 1
 830 -38 l 1
 830 338 l 1
 70 338 l 1
223 63 m 1
 265 98 304 174 304 222 c 0
 304 249 282 265 241 267 c 1
 234 225 229 168 223 63 c 1
349 222 m 0
 349 136 257 0 199 0 c 0xdfe0
 187 0 177 10 177 23 c 0
 177 104 188 243 199 293 c 0
 201 303 210 310 221 311 c 2
 230 311 l 2
 307 311 349 279 349 222 c 0
433 289 m 0
 433 287 432 277 430 260 c 0
 425 215 414 125 409 45 c 0
 410 44 410 45 411 45 c 0
 412 45 412 45 413 45 c 2
 417 45 l 2
 441 45 457 45 487 46 c 2
 496 46 l 2
 508 46 518 36 518 24 c 0
 518 12 509 2 497 1 c 0
 449 0 449 0 435 0 c 0
 382 0 363 8 363 31 c 2
 363 32 l 1
 368 124 375 187 389 292 c 0
 390 303 400 311 411 311 c 0
 423 311 433 301 433 289 c 0
583 45 m 1
 616 46 663 53 678 55 c 0
 681 55 683 56 683 56 c 0
 686 56 687 56 688 57 c 0
 700 57 711 47 711 35 c 0
 711 24 700 13 690 13 c 0xbfe0
 595 0 595 0 573 0 c 2
 561 0 l 2
 549 0 539 10 539 22 c 2
 539 37 l 2
 539 94 547 179 563 285 c 0
 563 306 582 311 661 311 c 2
 689 311 l 2
 714 311 725 304 725 288 c 0
 725 276 714 266 702 266 c 2
 695 266 l 2
 674 267 671 267 663 267 c 2
 627 267 l 2
 626 267 626 267 619 266 c 0
 613 266 609 266 605 265 c 1
 595 200 593 183 591 157 c 1
 684 157 l 2
 696 157 707 147 707 135 c 0
 707 123 696 112 684 112 c 2
 587 112 l 1
 584 89 583 67 583 45 c 1
EndSplineSet
EndChar

StartChar: uni2411
Encoding: 17 9233 17
Width: 900
VWidth: 0
Flags: W
HStem: -83 45<70 830> 0 45<439.187 535.402> 20 48<488.503 574.906> 267 44<298.157 354.245> 338 45<70 830>
VStem: 25 45<-38 338> 364 45<149.866 255.84> 394 44<46.541 115.741> 611 43<0.281799 310.298> 830 45<-38 338>
LayerCount: 2
Fore
SplineSet
438 65 m 1028x9dc0
25 383 m 1
 875 383 l 1
 875 -83 l 1
 25 -83 l 1
 25 383 l 1
70 338 m 1
 70 -38 l 1
 830 -38 l 1
 830 338 l 1
 70 338 l 1
283 63 m 1
 325 98 364 174 364 222 c 0x9ec0
 364 249 342 265 301 267 c 1
 294 225 289 168 283 63 c 1
409 222 m 0
 409 136 317 0 259 0 c 0xdec0
 247 0 237 10 237 23 c 0
 237 104 248 243 259 293 c 0
 261 303 270 310 281 311 c 2
 290 311 l 2
 367 311 409 279 409 222 c 0
469 45 m 0
 480 45 495 50 511 56 c 0
 527 62 542 68 553 68 c 0xbdc0
 565 68 576 57 576 45 c 0xddc0
 576 34 561 20 550 20 c 1xbdc0
 514 5 492 0 469 0 c 0
 428 0 394 30 394 66 c 0
 394 112 469 230 546 305 c 0
 550 309 556 311 562 311 c 0
 574 311 584 301 584 289 c 0
 584 283 581 277 577 273 c 0
 514 212 438 99 438 66 c 1xddc0
 442 51 451 45 469 45 c 0
658 289 m 0
 658 265 657 245 656 226 c 0
 655 207 655 188 655 164 c 2
 655 155 l 2
 654 138 654 124 654 86 c 0
 654 75 654 65 654 54 c 0
 654 43 653 33 653 22 c 0
 653 10 643 0 631 0 c 0xdcc0
 619 0 609 11 609 23 c 0
 609 57 610 89 611 147 c 2
 611 167 l 2
 611 168 611 170 611 171 c 0
 612 193 612 192 614 275 c 0
 614 279 614 284 614 289 c 0
 614 301 624 311 636 311 c 0
 648 311 658 301 658 289 c 0
EndSplineSet
EndChar

StartChar: uni2412
Encoding: 18 9234 18
Width: 900
VWidth: 0
Flags: W
HStem: -83 45<70 830> 0 45<375.187 471.402 607.574 715.954> 20 48<424.503 510.906> 267 44<234.157 290.245> 338 45<70 830>
VStem: 25 45<-38 338> 300 45<149.866 255.84> 330 44<46.541 115.741> 830 45<-38 338>
LayerCount: 2
Fore
SplineSet
374 65 m 1028x9d80
25 383 m 1
 875 383 l 1
 875 -83 l 1
 25 -83 l 1
 25 383 l 1
70 338 m 1
 70 -38 l 1
 830 -38 l 1
 830 338 l 1
 70 338 l 1
219 63 m 1
 261 98 300 174 300 222 c 0x9e80
 300 249 278 265 237 267 c 1
 230 225 225 168 219 63 c 1
345 222 m 0
 345 136 253 0 195 0 c 0xde80
 183 0 173 10 173 23 c 0
 173 104 184 243 195 293 c 0
 197 303 206 310 217 311 c 2
 226 311 l 2
 303 311 345 279 345 222 c 0
405 45 m 0
 416 45 431 50 447 56 c 0
 463 62 478 68 489 68 c 0xbd80
 501 68 512 57 512 45 c 0xdd80
 512 34 497 20 486 20 c 1xbd80
 450 5 428 0 405 0 c 0
 364 0 330 30 330 66 c 0
 330 112 405 230 482 305 c 0
 486 309 492 311 498 311 c 0
 510 311 520 301 520 289 c 0
 520 283 517 277 513 273 c 0
 450 212 374 99 374 66 c 1xdd80
 378 51 387 45 405 45 c 0
656 267 m 1
 633 264 609 250 591 238 c 0
 578 230 567 223 560 223 c 0
 548 223 538 233 538 245 c 0
 538 252 542 259 548 263 c 0
 591 294 631 311 660 311 c 0
 685 311 702 297 702 276 c 0
 702 258 696 218 690 200 c 0
 683 175 676 162 648 116 c 0
 638 99 626 80 607 45 c 1
 608 44 608 45 609 45 c 0
 610 45 611 45 612 45 c 2
 623 45 l 2
 646 45 677 47 713 51 c 0
 715 51 715 51 716 52 c 0
 728 52 738 42 738 30 c 0
 738 19 729 8 718 7 c 0
 689 4 635 0 623 0 c 0xdc80
 579 0 558 12 558 37 c 0
 558 47 559 50 570 68 c 0
 600 121 600 121 610 138 c 0
 610 139 612 139 612 140 c 0
 612 141 613 142 613 143 c 0
 646 199 651 214 656 267 c 1
EndSplineSet
EndChar

StartChar: uni2413
Encoding: 19 9235 19
Width: 900
VWidth: 0
Flags: W
HStem: -83 45<70 830> 0 45<379.187 475.402 556.334 644.746> 20 48<428.503 514.906> 267 44<228.157 284.245 551.762 675.539> 338 45<70 830>
VStem: 25 45<-38 338> 294 45<149.866 255.84> 334 44<46.541 115.741> 662 45<85 116.847> 830 45<-38 338>
LayerCount: 2
Fore
SplineSet
378 65 m 1028x9dc0
25 383 m 1
 875 383 l 1
 875 -83 l 1
 25 -83 l 1
 25 383 l 1
70 338 m 1
 70 -38 l 1
 830 -38 l 1
 830 338 l 1
 70 338 l 1
213 63 m 1
 255 98 294 174 294 222 c 0x9ec0
 294 249 272 265 231 267 c 1
 224 225 219 168 213 63 c 1
339 222 m 0
 339 136 247 0 189 0 c 0xdec0
 177 0 167 10 167 23 c 0
 167 104 178 243 189 293 c 0
 191 303 200 310 211 311 c 2
 220 311 l 2
 297 311 339 279 339 222 c 0
409 45 m 0
 420 45 435 50 451 56 c 0
 467 62 482 68 493 68 c 0xbdc0
 505 68 516 57 516 45 c 0xddc0
 516 34 501 20 490 20 c 1xbdc0
 454 5 432 0 409 0 c 0
 368 0 334 30 334 66 c 0
 334 112 409 230 486 305 c 0
 490 309 496 311 502 311 c 0
 514 311 524 301 524 289 c 0
 524 283 521 277 517 273 c 0
 454 212 378 99 378 66 c 1xddc0
 382 51 391 45 409 45 c 0
604 166 m 0
 604 194 627 214 648 232 c 0
 659 242 671 250 677 260 c 1
 665 264 646 267 627 267 c 0
 608 267 591 266 575 264 c 2
 573 264 l 2
 561 264 551 274 551 286 c 0
 551 297 560 308 571 309 c 0
 582 311 588 311 627 311 c 0
 691 311 723 295 723 262 c 0
 723 237 700 219 680 202 c 0
 666 191 653 180 649 169 c 0
 650 168 655 164 663 156 c 0
 693 130 707 108 707 86 c 0
 707 67 690 44 665 28 c 0
 651 19 640 15 599 5 c 0
 598 5 599 5 599 4 c 1
 598 4 l 2
 593 2 583 0 579 0 c 0
 567 0 556 11 556 23 c 0
 556 36 563 42 580 45 c 0xdcc0
 581 45 600 50 603 51 c 0
 647 62 654 66 661 85 c 1
 662 85 l 1
 662 86 l 2
 662 100 647 113 633 126 c 0
 619 139 604 152 604 166 c 0
EndSplineSet
EndChar

StartChar: uni2414
Encoding: 20 9236 20
Width: 900
VWidth: 0
Flags: W
HStem: -83 45<70 830> 0 45<373.187 469.402> 20 48<422.503 508.906> 111 46<588.121 620.806> 127 74<682.536 713.621> 267 44<226.157 282.245> 338 45<70 830>
VStem: 25 45<-38 338> 292 45<149.866 255.84> 328 44<46.541 115.741> 542 51<191.201 309.406> 542 44<157.331 288.799> 614 45<0.315147 109.124> 635 45<180.123 310.718> 830 45<-38 338>
LayerCount: 2
Fore
SplineSet
372 65 m 1028x8742
25 383 m 1
 875 383 l 1
 875 -83 l 1
 25 -83 l 1
 25 383 l 1
70 338 m 1
 70 -38 l 1
 830 -38 l 1
 830 338 l 1
 70 338 l 1
211 63 m 1
 253 98 292 174 292 222 c 0x8782
 292 249 270 265 229 267 c 1
 222 225 217 168 211 63 c 1
337 222 m 0
 337 136 245 0 187 0 c 0xc782
 175 0 165 10 165 23 c 0
 165 104 176 243 187 293 c 0
 189 303 198 310 209 311 c 2
 218 311 l 2
 295 311 337 279 337 222 c 0
403 45 m 0
 414 45 429 50 445 56 c 0
 461 62 476 68 487 68 c 0xa742
 499 68 510 57 510 45 c 0xc742
 510 34 495 20 484 20 c 1xa742
 448 5 426 0 403 0 c 0
 362 0 328 30 328 66 c 0
 328 112 403 230 480 305 c 0
 484 309 490 311 496 311 c 0
 508 311 518 301 518 289 c 0
 518 283 515 277 511 273 c 0
 448 212 372 99 372 66 c 1xc742
 376 51 385 45 403 45 c 0
671 176 m 1
 687 183 697 189 704 193 c 0
 713 198 718 201 726 201 c 0
 738 201 748 191 748 179 c 0
 748 171 744 163 737 159 c 0
 718 148 694 137 667 127 c 0x8f16
 666 126 660 50 659 25 c 2
 659 21 l 2
 658 9 648 0 637 0 c 0
 625 0 614 11 614 23 c 0
 614 29 614 29 621 113 c 1
 617 112 604 111 599 111 c 0
 558 111 542 134 542 191 c 0xd71a
 542 210 542 215 548 290 c 0
 549 302 558 311 570 311 c 0
 582 311 593 301 593 289 c 0xd722
 593 285 592 262 590 240 c 0
 588 218 586 195 586 191 c 0
 586 175 588 164 591 157 c 1
 592 157 l 2
 594 156 594 156 599 156 c 0
 608 156 616 157 625 160 c 0
 626 161 626 161 626 165 c 0
 632 230 633 246 635 291 c 0
 636 303 645 311 657 311 c 0
 669 311 680 301 680 289 c 0xd716
 680 287 678 265 671 176 c 1
EndSplineSet
EndChar

StartChar: uni2415
Encoding: 21 9237 21
Width: 900
VWidth: 0
Flags: W
HStem: -83 45<70 830> 0 21G<151 162 278.5 304.5 375 385.5 524.5 536 597 609> 103 44<445.509 482 483 491> 338 45<70 830>
VStem: 25 45<-38 338> 135 44<0.196648 162.649> 311 44<97.672 310.885> 359 43<0.155731 26> 508 44<0.1441 99.9951> 595 45<189 310.685> 830 45<-38 338>
LayerCount: 2
Fore
SplineSet
25 383 m 1
 875 383 l 1
 875 -83 l 1
 25 -83 l 1
 25 383 l 1
70 338 m 1
 70 -38 l 1
 830 -38 l 1
 830 338 l 1
 70 338 l 1
135 23 m 2
 135 27 l 1
 145 80 153 154 159 210 c 0
 163 251 166 283 169 291 c 0
 173 303 184 311 197 311 c 0
 226 311 239 283 271 151 c 0
 272 150 272 150 272 148 c 0
 273 145 273 145 292 69 c 1
 302 116 311 218 311 289 c 0
 311 301 321 311 333 311 c 0
 345 311 355 301 355 289 c 0
 355 221 350 144 342 97 c 0
 331 27 317 0 292 0 c 0
 265 0 256 21 219 175 c 1
 218 176 218 176 218 177 c 0
 209 216 207 226 205 231 c 1
 194 111 189 70 179 18 c 0
 177 8 167 0 157 0 c 0
 145 0 135 11 135 23 c 2
491 147 m 1
 488 177 483 200 475 229 c 1
 464 203 456 181 445 145 c 1
 456 147 458 147 480 147 c 2
 491 147 l 1
508 19 m 0
 508 27 508 31 506 40 c 0
 504 50 501 67 497 103 c 1
 483 103 l 1
 482 102 l 1
 473 102 l 2
 442 101 440 101 430 98 c 1
 425 79 420 64 402 15 c 0
 399 6 390 0 381 0 c 0
 369 0 359 11 359 23 c 0
 359 26 360 26 360 26 c 0
 360 26 361 27 361 30 c 0
 373 61 382 92 391 123 c 0
 407 179 425 236 459 299 c 0
 464 307 471 311 479 311 c 0
 488 311 496 306 499 297 c 0
 524 226 530 195 551 33 c 0
 551 32 552 31 552 30 c 0
 552 29 552 29 552 28 c 0
 552 25 552 24 553 23 c 0
 553 11 542 0 530 0 c 0
 519 0 509 8 508 19 c 0
635 189 m 1
 701 228 721 264 733 286 c 0
 741 300 746 309 758 309 c 0
 770 309 781 298 781 286 c 0
 781 254 719 188 651 146 c 1
 664 133 682 118 702 102 c 0
 739 73 777 42 777 26 c 0
 777 14 767 4 755 4 c 0
 746 4 746 4 736 14 c 0
 725 25 700 50 633 103 c 1
 632 104 l 1
 630 105 l 1
 625 21 l 2
 624 9 615 0 603 0 c 0
 591 0 581 11 581 23 c 0
 582 25 588 140 595 290 c 0
 596 302 605 311 617 311 c 0
 629 311 640 301 640 289 c 0
 640 288 640 280 639 268 c 0
 638 248 636 217 635 189 c 1
EndSplineSet
EndChar

StartChar: uni2416
Encoding: 22 9238 22
Width: 900
VWidth: 0
Flags: W
HStem: -83 45<70 830> 0 44<174.132 251.364> 263 48<261.117 317 317 345.617> 338 45<70 830>
VStem: 25 45<-38 338> 182 45<168.628 233.571> 264 44<53.3627 114.175> 374 43<297 310.845> 433 44<0.179291 33 34 175.711> 479 70<248.511 286.625> 549 44<0.196648 162.649> 725 44<97.672 310.885> 830 45<-38 338>
LayerCount: 2
Fore
SplineSet
25 383 m 1xff98
 875 383 l 1
 875 -83 l 1
 25 -83 l 1
 25 383 l 1xff98
70 338 m 1
 70 -38 l 1
 830 -38 l 1
 830 338 l 1
 70 338 l 1
227 205 m 2
 227 182 248 166 268 150 c 0
 288 134 308 117 308 94 c 0
 308 47 266 0 223 0 c 0
 183 0 132 26 132 47 c 0
 132 59 142 69 154 69 c 0
 166 69 177 62 188 56 c 0
 199 50 211 44 223 44 c 0
 242 44 255 60 264 94 c 0
 264 97 255 106 238 120 c 0
 196 153 182 175 182 205 c 0
 182 252 220 282 316 311 c 0
 317 312 317 312 317 311 c 1
 323 311 l 2
 335 311 346 301 346 289 c 0
 346 274 343 272 314 263 c 0
 281 254 268 249 255 241 c 0
 238 230 228 219 227 210 c 2
 227 205 l 2
481 121 m 0
 481 102 480 90 479 78 c 0
 478 66 477 53 477 34 c 2
 477 23 l 2
 477 11 467 0 455 0 c 0
 443 0 433 10 433 22 c 2
 433 33 l 1
 432 34 l 1
 432 44 433 62 434 79 c 0
 435 96 436 114 436 124 c 0
 436 148 436 148 435 155 c 1
 418 166 405 192 388 249 c 1
 387 249 l 2
 386 250 374 287 374 289 c 0
 374 301 384 311 396 311 c 0
 406 311 414 305 417 297 c 0
 417 297 417 295 418 293 c 0
 424 277 446 213 456 196 c 1
 464 209 472 225 479 243 c 0xffd8
 487 263 496 285 508 302 c 0
 512 308 518 311 526 311 c 0
 538 311 549 301 549 289 c 0xffb8
 549 280 549 280 546 277 c 0
 538 269 529 248 519 225 c 0
 507 196 494 165 480 155 c 1
 481 147 481 147 481 121 c 0
549 23 m 2xffb8
 549 27 l 1
 559 80 567 154 573 210 c 0
 577 251 580 283 583 291 c 0
 587 303 598 311 611 311 c 0
 640 311 653 283 685 151 c 0
 686 150 686 150 686 148 c 0
 687 145 687 145 706 69 c 1
 716 116 725 218 725 289 c 0
 725 301 735 311 747 311 c 0
 759 311 769 301 769 289 c 0
 769 221 764 144 756 97 c 0
 745 27 731 0 706 0 c 0
 679 0 670 21 633 175 c 1
 632 176 632 176 632 177 c 0
 623 216 621 226 619 231 c 1
 608 111 603 70 593 18 c 0
 591 8 581 0 571 0 c 0
 559 0 549 11 549 23 c 2xffb8
EndSplineSet
EndChar

StartChar: uni2417
Encoding: 23 9239 23
Width: 900
VWidth: 0
Flags: W
HStem: -83 45<70 830> 0 45<181 280.999 634 663.954> 13 44<281.139 308.803> 112 45<189 304.718> 267 44<203.188 322.797 371.185 435 479 579.232 658 663 664 714.125> 338 45<70 830>
VStem: 25 45<-38 338> 137 44<45 108.977> 410 47<0.365234 198.725> 432 47<71.8561 265> 667 45<55.3202 93.526> 716 47<233.015 264.885> 830 45<-38 338>
LayerCount: 2
Fore
SplineSet
25 383 m 1x9f38
 875 383 l 1
 875 -83 l 1
 25 -83 l 1
 25 383 l 1x9f38
70 338 m 1
 70 -38 l 1
 830 -38 l 1
 830 338 l 1
 70 338 l 1
181 45 m 1xdf38
 214 46 261 53 276 55 c 0
 279 55 281 56 281 56 c 0
 284 56 285 56 286 57 c 0
 298 57 309 47 309 35 c 0
 309 24 298 13 288 13 c 0xbf38
 193 0 193 0 171 0 c 2
 159 0 l 2
 147 0 137 10 137 22 c 2
 137 37 l 2
 137 94 145 179 161 285 c 0
 161 306 180 311 259 311 c 2
 287 311 l 2
 312 311 323 304 323 288 c 0
 323 276 312 266 300 266 c 2
 293 266 l 2
 272 267 269 267 261 267 c 2
 225 267 l 2
 224 267 224 267 217 266 c 0
 211 266 207 266 203 265 c 1
 193 200 191 183 189 157 c 1
 282 157 l 2
 294 157 305 147 305 135 c 0
 305 123 294 112 282 112 c 2
 185 112 l 1
 182 89 181 67 181 45 c 1xdf38
410 18 m 0xdfb8
 410 21 411 22 412 22 c 0
 413 22 413 23 413 26 c 0
 423 97 429 165 432 249 c 2
 432 252 l 2
 432 258 432 258 434 258 c 0
 435 258 435 258 435 265 c 1
 375 258 375 258 371 258 c 0
 359 258 349 268 349 280 c 0
 349 291 357 301 368 302 c 0
 414 309 446 311 489 311 c 0
 541 311 546 311 559 309 c 0
 570 308 580 298 580 286 c 0
 580 274 569 264 557 264 c 2
 556 264 l 2
 537 266 515 267 489 267 c 2
 479 267 l 1xdf78
 479 210 468 91 457 19 c 0
 455 8 446 0 435 0 c 0
 420 0 410 7 410 18 c 0xdfb8
640 101 m 1
 640 97 l 2
 638 91 636 74 634 49 c 1
 640 49 662 61 667 67 c 1
 667 69 l 2
 665 75 659 82 640 101 c 1
668 267 m 2
 664 267 l 1
 663 266 l 1
 658 266 l 1
 658 260 651 197 650 189 c 1
 667 198 710 244 716 260 c 0
 716 261 716 261 715 261 c 0
 700 265 685 267 668 267 c 2
588 28 m 0
 588 32 595 94 602 156 c 0
 609 218 615 281 615 285 c 0
 617 304 632 311 668 311 c 0
 727 311 763 295 763 268 c 0
 763 234 739 204 666 145 c 1
 665 144 l 2
 665 143 665 143 664 143 c 0
 663 143 663 143 662 142 c 1
 679 125 679 125 701 96 c 0
 710 85 712 80 712 69 c 0
 712 37 663 0 619 0 c 0
 600 0 588 11 588 28 c 0
EndSplineSet
EndChar

StartChar: uni2418
Encoding: 24 9240 24
Width: 900
VWidth: 0
Flags: W
HStem: -83 45<70 830> 0 45<163.187 259.402> 20 48<212.503 298.906> 103 44<409.509 446 447 455> 338 45<70 830>
VStem: 25 45<-38 338> 118 44<46.541 115.741> 323 43<0.155731 26> 472 44<0.1441 99.9951> 549 44<0.196648 162.649> 725 44<97.672 310.885> 830 45<-38 338>
LayerCount: 2
Fore
SplineSet
162 65 m 1024x9ff0
25 383 m 1
 875 383 l 1
 875 -83 l 1
 25 -83 l 1
 25 383 l 1
70 338 m 1
 70 -38 l 1
 830 -38 l 1
 830 338 l 1
 70 338 l 1
193 45 m 0xdff0
 204 45 219 50 235 56 c 0
 251 62 266 68 277 68 c 0xbff0
 289 68 300 57 300 45 c 0xdff0
 300 34 285 20 274 20 c 1xbff0
 238 5 216 0 193 0 c 0
 152 0 118 30 118 66 c 0
 118 112 193 230 270 305 c 0
 274 309 280 311 286 311 c 0
 298 311 308 301 308 289 c 0
 308 283 305 277 301 273 c 0
 238 212 162 99 162 66 c 1
 166 51 175 45 193 45 c 0xdff0
455 147 m 1
 452 177 447 200 439 229 c 1
 428 203 420 181 409 145 c 1
 420 147 422 147 444 147 c 2
 455 147 l 1
472 19 m 0
 472 27 472 31 470 40 c 0
 468 50 465 67 461 103 c 1
 447 103 l 1
 446 102 l 1
 437 102 l 2
 406 101 404 101 394 98 c 1
 389 79 384 64 366 15 c 0
 363 6 354 0 345 0 c 0
 333 0 323 11 323 23 c 0
 323 26 324 26 324 26 c 0
 324 26 325 27 325 30 c 0
 337 61 346 92 355 123 c 0
 371 179 389 236 423 299 c 0
 428 307 435 311 443 311 c 0
 452 311 460 306 463 297 c 0
 488 226 494 195 515 33 c 0
 515 32 516 31 516 30 c 0
 516 29 516 29 516 28 c 0
 516 25 516 24 517 23 c 0
 517 11 506 0 494 0 c 0xdff0
 483 0 473 8 472 19 c 0
549 23 m 2
 549 27 l 1
 559 80 567 154 573 210 c 0
 577 251 580 283 583 291 c 0
 587 303 598 311 611 311 c 0
 640 311 653 283 685 151 c 0
 686 150 686 150 686 148 c 0
 687 145 687 145 706 69 c 1
 716 116 725 218 725 289 c 0
 725 301 735 311 747 311 c 0
 759 311 769 301 769 289 c 0
 769 221 764 144 756 97 c 0
 745 27 731 0 706 0 c 0
 679 0 670 21 633 175 c 1
 632 176 632 176 632 177 c 0
 623 216 621 226 619 231 c 1
 608 111 603 70 593 18 c 0
 591 8 581 0 571 0 c 0
 559 0 549 11 549 23 c 2
EndSplineSet
EndChar

StartChar: uni2419
Encoding: 25 9241 25
Width: 900
VWidth: 0
Flags: W
HStem: -83 45<70 830> 0 45<257 356.999> 13 44<357.139 384.803> 112 45<265 380.718> 266 45<279.188 398.797> 338 45<70 830>
VStem: 25 45<-38 338> 213 44<45 108.977> 413 42<0.129364 30.7693> 643 44<1.90625 164> 830 45<-38 338>
LayerCount: 2
Fore
SplineSet
25 383 m 1x9fe0
 875 383 l 1
 875 -83 l 1
 25 -83 l 1
 25 383 l 1x9fe0
70 338 m 1
 70 -38 l 1
 830 -38 l 1
 830 338 l 1
 70 338 l 1
257 45 m 1xdfe0
 290 46 337 53 352 55 c 0
 355 55 357 56 357 56 c 0
 360 56 361 56 362 57 c 0
 374 57 385 47 385 35 c 0
 385 24 374 13 364 13 c 0xbfe0
 269 0 269 0 247 0 c 2
 235 0 l 2
 223 0 213 10 213 22 c 2
 213 37 l 2
 213 94 221 179 237 285 c 0
 237 306 256 311 335 311 c 2
 363 311 l 2
 388 311 399 304 399 288 c 0
 399 276 388 266 376 266 c 2
 369 266 l 2
 348 267 345 267 337 267 c 2
 301 267 l 2
 300 267 300 267 293 266 c 0
 287 266 283 266 279 265 c 1
 269 200 267 183 265 157 c 1
 358 157 l 2
 370 157 381 147 381 135 c 0
 381 123 370 112 358 112 c 2
 261 112 l 1
 258 89 257 67 257 45 c 1xdfe0
415 31 m 0
 416 31 415 31 415 32 c 0
 447 95 468 170 483 225 c 0
 494 263 502 293 509 302 c 0
 514 308 521 311 528 311 c 0
 550 311 555 298 557 235 c 0
 559 170 563 139 571 124 c 1
 591 137 604 194 615 240 c 0
 622 269 627 293 633 300 c 0
 638 307 645 311 654 311 c 0
 681 311 687 282 687 155 c 0
 687 103 685 53 681 20 c 0
 680 9 670 0 659 0 c 0
 647 0 637 11 637 23 c 2
 637 25 l 1
 641 64 643 108 643 155 c 2
 643 164 l 1
 623 105 600 78 569 78 c 0
 538 78 521 107 515 170 c 1
 495 103 476 53 455 12 c 0
 452 5 444 0 435 0 c 0xdfe0
 423 0 413 11 413 23 c 0
 413 26 413 26 415 31 c 0
EndSplineSet
EndChar

StartChar: uni241A
Encoding: 26 9242 26
Width: 900
VWidth: 0
Flags: W
HStem: -83 45<70 830> 0 44<186.132 263.364 430.887 465.014 610 638.02> 266 45<276.512 329 329 357.862 634 639 640 690.125> 338 45<70 830>
VStem: 25 45<-38 338> 194 45<168.628 233.571> 276 44<53.3627 114.175> 377 44<46.3489 288.395> 388 45<132.802 310.686> 509 44<129.988 310.885> 643 45<55.3202 93.526> 692 47<233.015 264.885> 830 45<-38 338>
LayerCount: 2
Fore
SplineSet
25 383 m 1xfe78
 875 383 l 1
 875 -83 l 1
 25 -83 l 1
 25 383 l 1xfe78
70 338 m 1
 70 -38 l 1
 830 -38 l 1
 830 338 l 1
 70 338 l 1
239 205 m 2
 239 182 260 166 280 150 c 0
 300 134 320 117 320 94 c 0
 320 47 278 0 235 0 c 0
 195 0 144 26 144 47 c 0
 144 59 154 69 166 69 c 0
 178 69 189 62 200 56 c 0
 211 50 223 44 235 44 c 0
 254 44 267 60 276 94 c 0
 276 97 267 106 250 120 c 0
 208 153 194 175 194 205 c 0
 194 252 232 282 328 311 c 0
 329 312 329 312 329 311 c 1
 335 311 l 2
 347 311 358 301 358 289 c 0
 358 274 355 272 326 263 c 0
 293 254 280 249 267 241 c 0
 250 230 240 219 239 210 c 2
 239 205 l 2
433 289 m 0xfef8
 433 276 430 243 427 210 c 0
 424 177 421 144 421 131 c 0
 421 88 425 62 434 49 c 0
 436 46 439 43 440 43 c 0
 475 43 507 158 509 289 c 0
 509 301 519 311 531 311 c 0
 543 311 553 301 553 289 c 0
 553 119 507 0 441 0 c 0
 398 0 377 42 377 131 c 0xff78
 377 169 382 236 388 291 c 0
 389 302 399 311 410 311 c 0
 422 311 433 301 433 289 c 0xfef8
616 101 m 1
 616 97 l 2
 614 91 612 74 610 49 c 1
 616 49 638 61 643 67 c 1
 643 69 l 2
 641 75 635 82 616 101 c 1
644 267 m 2
 640 267 l 1
 639 266 l 1
 634 266 l 1
 634 260 627 197 626 189 c 1
 643 198 686 244 692 260 c 0
 692 261 692 261 691 261 c 0
 676 265 661 267 644 267 c 2
564 28 m 0
 564 32 571 94 578 156 c 0
 585 218 591 281 591 285 c 0
 593 304 608 311 644 311 c 0
 703 311 739 295 739 268 c 0
 739 234 715 204 642 145 c 1
 641 144 l 2
 641 143 641 143 640 143 c 0
 639 143 639 143 638 142 c 1
 655 125 655 125 677 96 c 0
 686 85 688 80 688 69 c 0
 688 37 639 0 595 0 c 0
 576 0 564 11 564 28 c 0
EndSplineSet
EndChar

StartChar: uni241B
Encoding: 27 9243 27
Width: 900
VWidth: 0
Flags: W
HStem: -83 45<70 830> 0 45<199 298.999 392.168 472.598 599.187 695.402> 13 44<299.139 326.803> 20 48<648.503 734.906> 112 45<207 322.718> 266 45<221.188 340.797 484.512 537 537 565.862> 338 45<70 830>
VStem: 25 45<-38 338> 155 44<45 108.977> 402 45<168.628 233.571> 484 44<53.3627 114.175> 554 44<46.541 115.741> 830 45<-38 338>
LayerCount: 2
Fore
SplineSet
598 65 m 1024x8ff8
25 383 m 1
 875 383 l 1
 875 -83 l 1
 25 -83 l 1
 25 383 l 1
70 338 m 1
 70 -38 l 1
 830 -38 l 1
 830 338 l 1
 70 338 l 1
199 45 m 1xcff8
 232 46 279 53 294 55 c 0
 297 55 299 56 299 56 c 0
 302 56 303 56 304 57 c 0
 316 57 327 47 327 35 c 0
 327 24 316 13 306 13 c 0xaff8
 211 0 211 0 189 0 c 2
 177 0 l 2
 165 0 155 10 155 22 c 2
 155 37 l 2
 155 94 163 179 179 285 c 0
 179 306 198 311 277 311 c 2
 305 311 l 2
 330 311 341 304 341 288 c 0
 341 276 330 266 318 266 c 2
 311 266 l 2
 290 267 287 267 279 267 c 2
 243 267 l 2
 242 267 242 267 235 266 c 0
 229 266 225 266 221 265 c 1
 211 200 209 183 207 157 c 1
 300 157 l 2
 312 157 323 147 323 135 c 0
 323 123 312 112 300 112 c 2
 203 112 l 1
 200 89 199 67 199 45 c 1xcff8
447 205 m 2
 447 182 468 166 488 150 c 0
 508 134 528 117 528 94 c 0
 528 47 486 0 443 0 c 0xcff8
 403 0 352 26 352 47 c 0
 352 59 362 69 374 69 c 0
 386 69 397 62 408 56 c 0
 419 50 431 44 443 44 c 0
 462 44 475 60 484 94 c 0
 484 97 475 106 458 120 c 0
 416 153 402 175 402 205 c 0
 402 252 440 282 536 311 c 0
 537 312 537 312 537 311 c 1
 543 311 l 2
 555 311 566 301 566 289 c 0
 566 274 563 272 534 263 c 0
 501 254 488 249 475 241 c 0
 458 230 448 219 447 210 c 2
 447 205 l 2
629 45 m 0
 640 45 655 50 671 56 c 0
 687 62 702 68 713 68 c 0x9ff8
 725 68 736 57 736 45 c 0xcff8
 736 34 721 20 710 20 c 1x9ff8
 674 5 652 0 629 0 c 0
 588 0 554 30 554 66 c 0
 554 112 629 230 706 305 c 0
 710 309 716 311 722 311 c 0
 734 311 744 301 744 289 c 0
 744 283 741 277 737 273 c 0
 674 212 598 99 598 66 c 1
 602 51 611 45 629 45 c 0
EndSplineSet
EndChar

StartChar: uni241C
Encoding: 28 9244 28
Width: 900
VWidth: 0
Flags: W
HStem: -83 45<70 830> 0 44<476.132 553.364> 138 45<344 360 361 454.743> 266 45<350.261 463.821 566.512 619 619 647.862> 338 45<70 830>
VStem: 25 45<-38 338> 299 47<0.496094 138.987 182 261.715> 484 45<168.628 233.571> 566 44<53.3627 114.175> 830 45<-38 338>
LayerCount: 2
Fore
SplineSet
25 383 m 1
 875 383 l 1
 875 -83 l 1
 25 -83 l 1
 25 383 l 1
70 338 m 1
 70 -38 l 1
 830 -38 l 1
 830 338 l 1
 70 338 l 1
349 262 m 1
 349 260 l 2
 349 257 348 255 348 253 c 0
 347 248 347 242 346 226 c 2
 346 223 l 2
 346 213 346 208 345 200 c 0
 345 197 344 195 344 192 c 0
 344 189 344 186 344 183 c 2
 344 182 l 1
 358 182 l 2
 360 182 l 0
 361 183 l 2
 433 183 l 2
 445 183 455 173 455 161 c 0
 455 149 446 139 434 138 c 2
 417 138 l 2
 393 138 390 138 383 139 c 2
 374 139 l 2
 356 139 354 139 343 137 c 1
 343 125 l 2
 343 86 344 55 346 25 c 2
 346 23 l 2
 346 11 335 0 323 0 c 0
 311 0 302 9 301 21 c 0
 299 45 299 53 299 125 c 0
 299 187 301 237 306 284 c 0
 307 294 315 303 325 304 c 2
 327 304 l 1
 354 309 385 311 415 311 c 0
 453 311 464 306 464 288 c 0
 464 276 454 265 442 265 c 2
 439 265 l 2
 438 265 437 266 436 266 c 0
 435 266 435 266 434 266 c 2
 428 266 l 2
 424 267 423 267 415 267 c 0
 396 267 376 265 349 262 c 1
529 205 m 2
 529 182 550 166 570 150 c 0
 590 134 610 117 610 94 c 0
 610 47 568 0 525 0 c 0
 485 0 434 26 434 47 c 0
 434 59 444 69 456 69 c 0
 468 69 479 62 490 56 c 0
 501 50 513 44 525 44 c 0
 544 44 557 60 566 94 c 0
 566 97 557 106 540 120 c 0
 498 153 484 175 484 205 c 0
 484 252 522 282 618 311 c 0
 619 312 619 312 619 311 c 1
 625 311 l 2
 637 311 648 301 648 289 c 0
 648 274 645 272 616 263 c 0
 583 254 570 249 557 241 c 0
 540 230 530 219 529 210 c 2
 529 205 l 2
EndSplineSet
EndChar

StartChar: uni241D
Encoding: 29 9245 29
Width: 900
VWidth: 0
Flags: W
HStem: -83 45<70 830> 0 44<460.132 537.364> 13 44<267 336.231> 90 57<291.18 339.569> 90 50<286.625 339.569> 269 42<356.669 401.87 557.539 603 603 631.862> 338 45<70 830>
VStem: 25 45<-38 338> 223 44<58.0954 169.403> 339 44<0.162888 25 66.375 98.3078> 468 45<168.628 233.571> 550 44<53.3627 114.175> 830 45<-38 338>
LayerCount: 2
Fore
SplineSet
25 383 m 1x87f8
 875 383 l 1
 875 -83 l 1
 25 -83 l 1
 25 383 l 1x87f8
70 338 m 1
 70 -38 l 1
 830 -38 l 1
 830 338 l 1
 70 338 l 1
387 83 m 0
 387 66 387 63 386 58 c 0
 385 53 384 47 383 27 c 2
 383 23 l 2
 383 11 373 0 361 0 c 0xd7f8
 348 0 339 9 339 23 c 2
 339 25 l 1
 279 13 279 13 267 13 c 0
 234 13 223 27 223 67 c 0
 223 182 273 264 370 309 c 0
 373 311 375 311 379 311 c 0
 391 311 402 301 402 289 c 0
 402 280 397 272 389 269 c 0
 306 230 267 166 267 67 c 2
 267 57 l 1
 275 57 340 70 342 72 c 0
 342 84 342 84 341 99 c 1
 310 90 310 90 309 90 c 0xb7f8
 297 90 286 101 286 113 c 0
 286 127 289 129 322 140 c 0x8ff8
 333 145 343 147 353 147 c 0x97f8
 367 147 378 139 381 127 c 0
 385 111 387 96 387 83 c 0
513 205 m 2
 513 182 534 166 554 150 c 0
 574 134 594 117 594 94 c 0
 594 47 552 0 509 0 c 0
 469 0 418 26 418 47 c 0
 418 59 428 69 440 69 c 0
 452 69 463 62 474 56 c 0
 485 50 497 44 509 44 c 0
 528 44 541 60 550 94 c 0
 550 97 541 106 524 120 c 0
 482 153 468 175 468 205 c 0
 468 252 506 282 602 311 c 0
 603 312 603 312 603 311 c 1
 609 311 l 2
 621 311 632 301 632 289 c 0
 632 274 629 272 600 263 c 0
 567 254 554 249 541 241 c 0
 524 230 514 219 513 210 c 2
 513 205 l 2
EndSplineSet
EndChar

StartChar: uni241E
Encoding: 30 9246 30
Width: 900
VWidth: 0
Flags: W
HStem: -83 45<70 830> 0 44<476.132 553.364> 267 44<299.458 374.366 569.985 619 619 647.862> 338 45<70 830>
VStem: 25 45<-38 338> 240 45<0.909668 97 131 263.532> 385 45<183.55 254.616> 484 45<168.628 233.571> 566 44<53.3627 114.175> 830 45<-38 338>
LayerCount: 2
Fore
SplineSet
25 383 m 1
 875 383 l 1
 875 -83 l 1
 25 -83 l 1
 25 383 l 1
70 338 m 1
 70 -38 l 1
 830 -38 l 1
 830 338 l 1
 70 338 l 1
335 108 m 1
 340 101 349 92 359 82 c 0
 379 61 403 37 403 22 c 0
 403 10 393 0 381 0 c 0
 373 0 367 4 363 10 c 0
 346 35 326 55 309 72 c 0
 300 81 292 89 285 97 c 1
 285 83 282 25 281 21 c 0
 280 9 271 0 259 0 c 0
 242 0 238 6 238 36 c 0
 238 40 238 44 238 48 c 0
 238 52 239 57 239 61 c 0
 239 65 240 68 240 72 c 0
 240 76 240 78 240 82 c 2
 240 107 l 2
 241 182 245 217 259 282 c 0
 263 301 281 311 311 311 c 0
 379 311 430 274 430 224 c 0
 430 179 399 141 335 108 c 1
285 131 m 1
 291 137 301 142 314 149 c 0
 344 165 385 187 385 224 c 0
 385 250 355 267 311 267 c 0
 303 267 303 267 301 266 c 0
 289 213 286 183 285 131 c 1
529 205 m 2
 529 182 550 166 570 150 c 0
 590 134 610 117 610 94 c 0
 610 47 568 0 525 0 c 0
 485 0 434 26 434 47 c 0
 434 59 444 69 456 69 c 0
 468 69 479 62 490 56 c 0
 501 50 513 44 525 44 c 0
 544 44 557 60 566 94 c 0
 566 97 557 106 540 120 c 0
 498 153 484 175 484 205 c 0
 484 252 522 282 618 311 c 0
 619 312 619 312 619 311 c 1
 625 311 l 2
 637 311 648 301 648 289 c 0
 648 274 645 272 616 263 c 0
 583 254 570 249 557 241 c 0
 540 230 530 219 529 210 c 2
 529 205 l 2
EndSplineSet
EndChar

StartChar: uni241F
Encoding: 31 9247 31
Width: 900
VWidth: 0
Flags: W
HStem: -83 45<70 830> 0 43<308.887 342.265 470.101 545.074> 263 48<555.117 611 611 639.617> 338 45<70 830>
VStem: 25 45<-38 338> 255 44<46.3489 288.395> 266 45<132.802 310.686> 387 44<129.988 310.885> 476 45<168.628 233.571> 558 44<53.3627 114.175> 830 45<-38 338>
LayerCount: 2
Fore
SplineSet
25 383 m 1xf9e0
 875 383 l 1
 875 -83 l 1
 25 -83 l 1
 25 383 l 1xf9e0
70 338 m 1
 70 -38 l 1
 830 -38 l 1
 830 338 l 1
 70 338 l 1
311 289 m 0xfbe0
 311 276 308 243 305 210 c 0
 302 177 299 144 299 131 c 0
 299 88 303 62 312 49 c 0
 314 46 317 43 318 43 c 0
 353 43 385 158 387 289 c 0
 387 301 397 311 409 311 c 0
 421 311 431 301 431 289 c 0
 431 119 385 0 319 0 c 0
 276 0 255 42 255 131 c 0xfde0
 255 169 260 236 266 291 c 0
 267 302 277 311 288 311 c 0
 300 311 311 301 311 289 c 0xfbe0
521 205 m 2
 521 182 542 166 562 150 c 0
 582 134 602 117 602 94 c 0
 602 47 560 0 517 0 c 0
 477 0 426 26 426 47 c 0
 426 59 436 69 448 69 c 0
 460 69 471 62 482 56 c 0
 493 50 505 44 517 44 c 0
 536 44 549 60 558 94 c 0
 558 97 549 106 532 120 c 0
 490 153 476 175 476 205 c 0
 476 252 514 282 610 311 c 0
 611 312 611 312 611 311 c 1
 617 311 l 2
 629 311 640 301 640 289 c 0
 640 274 637 272 608 263 c 0
 575 254 562 249 549 241 c 0
 532 230 522 219 521 210 c 2
 521 205 l 2
EndSplineSet
EndChar

StartChar: uni2420
Encoding: 32 9248 32
Width: 900
VWidth: 0
Flags: W
HStem: -83 45<70 830> 0 44<286.132 363.364> 147 44<520 580.195> 267 44<379.985 429 429 457.862 531.047 561 561 594.718> 338 45<70 830>
VStem: 25 45<-38 338> 294 45<168.628 233.571> 376 44<53.3627 114.175> 457 44<0.161934 143.368> 595 44<205.375 264.748> 830 45<-38 338>
LayerCount: 2
Fore
SplineSet
25 383 m 1
 875 383 l 1
 875 -83 l 1
 25 -83 l 1
 25 383 l 1
70 338 m 1
 70 -38 l 1
 830 -38 l 1
 830 338 l 1
 70 338 l 1
339 205 m 2
 339 182 360 166 380 150 c 0
 400 134 420 117 420 94 c 0
 420 47 378 0 335 0 c 0
 295 0 244 26 244 47 c 0
 244 59 254 69 266 69 c 0
 278 69 289 62 300 56 c 0
 311 50 323 44 335 44 c 0
 354 44 367 60 376 94 c 0
 376 97 367 106 350 120 c 0
 308 153 294 175 294 205 c 0
 294 252 332 282 428 311 c 0
 429 312 429 312 429 311 c 1
 435 311 l 2
 447 311 458 301 458 289 c 0
 458 274 455 272 426 263 c 0
 393 254 380 249 367 241 c 0
 350 230 340 219 339 210 c 2
 339 205 l 2
520 191 m 1
 534 191 l 2
 569 191 586 206 595 247 c 1
 595 249 l 2
 595 258 579 267 563 267 c 2
 561 267 l 1
 561 266 561 266 560 266 c 0
 555 265 551 264 548 263 c 0
 537 260 537 260 534 259 c 0
 533 259 532 259 531 258 c 1
 529 252 522 211 520 192 c 2
 520 191 l 1
563 311 m 0
 606 311 639 284 639 249 c 0
 639 228 625 192 610 175 c 0
 591 156 566 147 534 147 c 2
 517 147 l 2
 516 147 l 0
 515 147 515 146 514 147 c 1
 513 143 513 142 513 142 c 0
 513 143 l 0
 513 144 l 0
 513 144 513 140 511 121 c 0
 509 104 506 74 501 21 c 0
 500 9 490 0 479 0 c 0
 467 0 457 11 457 23 c 0
 457 54 484 256 491 280 c 0
 497 296 532 311 563 311 c 0
EndSplineSet
EndChar

StartChar: uni2421
Encoding: 33 9249 33
Width: 900
VWidth: 0
Flags: W
HStem: -83 45<70 830> 0 45<415 514.999 624.609 731.547> 13 44<515.139 542.803> 112 45<423 538.718> 267 44<244.157 300.245 437.188 556.797> 338 45<70 830>
VStem: 25 45<-38 338> 310 45<149.866 255.84> 371 44<45 108.977> 603 44<123.247 310.856> 830 45<-38 338>
LayerCount: 2
Fore
SplineSet
25 383 m 1x9fe0
 875 383 l 1
 875 -83 l 1
 25 -83 l 1
 25 383 l 1x9fe0
70 338 m 1
 70 -38 l 1
 830 -38 l 1
 830 338 l 1
 70 338 l 1
229 63 m 1
 271 98 310 174 310 222 c 0
 310 249 288 265 247 267 c 1
 240 225 235 168 229 63 c 1
355 222 m 0
 355 136 263 0 205 0 c 0xdfe0
 193 0 183 10 183 23 c 0
 183 104 194 243 205 293 c 0
 207 303 216 310 227 311 c 2
 236 311 l 2
 313 311 355 279 355 222 c 0
415 45 m 1
 448 46 495 53 510 55 c 0
 513 55 515 56 515 56 c 0
 518 56 519 56 520 57 c 0
 532 57 543 47 543 35 c 0
 543 24 532 13 522 13 c 0xbfe0
 427 0 427 0 405 0 c 2
 393 0 l 2
 381 0 371 10 371 22 c 2
 371 37 l 2
 371 94 379 179 395 285 c 0
 395 306 414 311 493 311 c 2
 521 311 l 2
 546 311 557 304 557 288 c 0
 557 276 546 266 534 266 c 2
 527 266 l 2
 506 267 503 267 495 267 c 2
 459 267 l 2
 458 267 458 267 451 266 c 0
 445 266 441 266 437 265 c 1
 427 200 425 183 423 157 c 1
 516 157 l 2
 528 157 539 147 539 135 c 0
 539 123 528 112 516 112 c 2
 419 112 l 1
 416 89 415 67 415 45 c 1
647 289 m 0
 647 287 646 277 644 260 c 0
 639 215 628 125 623 45 c 0
 624 44 624 45 625 45 c 0
 626 45 626 45 627 45 c 2
 631 45 l 2
 655 45 671 45 701 46 c 2
 710 46 l 2
 722 46 732 36 732 24 c 0
 732 12 723 2 711 1 c 0
 663 0 663 0 649 0 c 0xdfe0
 596 0 577 8 577 31 c 2
 577 32 l 1
 582 124 589 187 603 292 c 0
 604 303 614 311 625 311 c 0
 637 311 647 301 647 289 c 0
EndSplineSet
EndChar

StartChar: uni2422
Encoding: 34 9250 34
Width: 900
VWidth: 0
Flags: W
HStem: -83 45<70 830> 0 44<286.132 363.364> 147 44<520 580.195> 267 44<379.985 429 429 457.862 531.047 561 561 594.718> 338 45<70 830>
VStem: 25 45<-38 338> 294 45<168.628 233.571> 376 44<53.3627 114.175> 457 44<0.161934 143.368> 595 44<205.375 264.748> 830 45<-38 338>
LayerCount: 2
Fore
SplineSet
25 383 m 1
 875 383 l 1
 875 -83 l 1
 25 -83 l 1
 25 383 l 1
70 338 m 1
 70 -38 l 1
 830 -38 l 1
 830 338 l 1
 70 338 l 1
339 205 m 2
 339 182 360 166 380 150 c 0
 400 134 420 117 420 94 c 0
 420 47 378 0 335 0 c 0
 295 0 244 26 244 47 c 0
 244 59 254 69 266 69 c 0
 278 69 289 62 300 56 c 0
 311 50 323 44 335 44 c 0
 354 44 367 60 376 94 c 0
 376 97 367 106 350 120 c 0
 308 153 294 175 294 205 c 0
 294 252 332 282 428 311 c 0
 429 312 429 312 429 311 c 1
 435 311 l 2
 447 311 458 301 458 289 c 0
 458 274 455 272 426 263 c 0
 393 254 380 249 367 241 c 0
 350 230 340 219 339 210 c 2
 339 205 l 2
520 191 m 1
 534 191 l 2
 569 191 586 206 595 247 c 1
 595 249 l 2
 595 258 579 267 563 267 c 2
 561 267 l 1
 561 266 561 266 560 266 c 0
 555 265 551 264 548 263 c 0
 537 260 537 260 534 259 c 0
 533 259 532 259 531 258 c 1
 529 252 522 211 520 192 c 2
 520 191 l 1
563 311 m 0
 606 311 639 284 639 249 c 0
 639 228 625 192 610 175 c 0
 591 156 566 147 534 147 c 2
 517 147 l 2
 516 147 l 0
 515 147 515 146 514 147 c 1
 513 143 513 142 513 142 c 0
 513 143 l 0
 513 144 l 0
 513 144 513 140 511 121 c 0
 509 104 506 74 501 21 c 0
 500 9 490 0 479 0 c 0
 467 0 457 11 457 23 c 0
 457 54 484 256 491 280 c 0
 497 296 532 311 563 311 c 0
EndSplineSet
EndChar

StartChar: uni2423
Encoding: 35 9251 35
Width: 900
VWidth: 0
Flags: W
HStem: -83 45<70 830> 0 44<286.132 363.364> 147 44<520 580.195> 267 44<379.985 429 429 457.862 531.047 561 561 594.718> 338 45<70 830>
VStem: 25 45<-38 338> 294 45<168.628 233.571> 376 44<53.3627 114.175> 457 44<0.161934 143.368> 595 44<205.375 264.748> 830 45<-38 338>
LayerCount: 2
Fore
SplineSet
25 383 m 1
 875 383 l 1
 875 -83 l 1
 25 -83 l 1
 25 383 l 1
70 338 m 1
 70 -38 l 1
 830 -38 l 1
 830 338 l 1
 70 338 l 1
339 205 m 2
 339 182 360 166 380 150 c 0
 400 134 420 117 420 94 c 0
 420 47 378 0 335 0 c 0
 295 0 244 26 244 47 c 0
 244 59 254 69 266 69 c 0
 278 69 289 62 300 56 c 0
 311 50 323 44 335 44 c 0
 354 44 367 60 376 94 c 0
 376 97 367 106 350 120 c 0
 308 153 294 175 294 205 c 0
 294 252 332 282 428 311 c 0
 429 312 429 312 429 311 c 1
 435 311 l 2
 447 311 458 301 458 289 c 0
 458 274 455 272 426 263 c 0
 393 254 380 249 367 241 c 0
 350 230 340 219 339 210 c 2
 339 205 l 2
520 191 m 1
 534 191 l 2
 569 191 586 206 595 247 c 1
 595 249 l 2
 595 258 579 267 563 267 c 2
 561 267 l 1
 561 266 561 266 560 266 c 0
 555 265 551 264 548 263 c 0
 537 260 537 260 534 259 c 0
 533 259 532 259 531 258 c 1
 529 252 522 211 520 192 c 2
 520 191 l 1
563 311 m 0
 606 311 639 284 639 249 c 0
 639 228 625 192 610 175 c 0
 591 156 566 147 534 147 c 2
 517 147 l 2
 516 147 l 0
 515 147 515 146 514 147 c 1
 513 143 513 142 513 142 c 0
 513 143 l 0
 513 144 l 0
 513 144 513 140 511 121 c 0
 509 104 506 74 501 21 c 0
 500 9 490 0 479 0 c 0
 467 0 457 11 457 23 c 0
 457 54 484 256 491 280 c 0
 497 296 532 311 563 311 c 0
EndSplineSet
EndChar

StartChar: uni2424
Encoding: 36 9252 36
Width: 900
VWidth: 0
Flags: W
HStem: -83 45<70 830> 1 45<540.609 647.547> 338 45<70 830>
VStem: 25 45<-38 338> 258 44<1.19665 163.649> 434 44<98.672 311.885> 519 44<124.247 311.856> 830 45<-38 338>
LayerCount: 2
Fore
SplineSet
25 383 m 1
 875 383 l 1
 875 -83 l 1
 25 -83 l 1
 25 383 l 1
70 338 m 1
 70 -38 l 1
 830 -38 l 1
 830 338 l 1
 70 338 l 1
258 24 m 2
 258 28 l 1
 268 81 276 155 282 211 c 0
 286 252 289 284 292 292 c 0
 296 304 307 312 320 312 c 0
 349 312 362 284 394 152 c 0
 395 151 395 151 395 149 c 0
 396 146 396 146 415 70 c 1
 425 117 434 219 434 290 c 0
 434 302 444 312 456 312 c 0
 468 312 478 302 478 290 c 0
 478 222 473 145 465 98 c 0
 454 28 440 1 415 1 c 0
 388 1 379 22 342 176 c 1
 341 177 341 177 341 178 c 0
 332 217 330 227 328 232 c 1
 317 112 312 71 302 19 c 0
 300 9 290 1 280 1 c 0
 268 1 258 12 258 24 c 2
563 290 m 0
 563 288 562 278 560 261 c 0
 555 216 544 126 539 46 c 0
 540 45 540 46 541 46 c 0
 542 46 542 46 543 46 c 2
 547 46 l 2
 571 46 587 46 617 47 c 2
 626 47 l 2
 638 47 648 37 648 25 c 0
 648 13 639 3 627 2 c 0
 579 1 579 1 565 1 c 0
 512 1 493 9 493 32 c 2
 493 33 l 1
 498 125 505 188 519 293 c 0
 520 304 530 312 541 312 c 0
 553 312 563 302 563 290 c 0
EndSplineSet
EndChar

StartChar: uni2425
Encoding: 37 9253 37
Width: 900
VWidth: 0
Flags: W
HStem: -83 45<70 830> 0 45<415 514.999 624.609 731.547> 13 44<515.139 542.803> 112 45<423 538.718> 267 44<244.157 300.245 437.188 556.797> 338 45<70 830>
VStem: 25 45<-38 338> 310 45<149.866 255.84> 371 44<45 108.977> 603 44<123.247 310.856> 830 45<-38 338>
LayerCount: 2
Fore
SplineSet
25 383 m 1x9fe0
 875 383 l 1
 875 -83 l 1
 25 -83 l 1
 25 383 l 1x9fe0
70 338 m 1
 70 -38 l 1
 830 -38 l 1
 830 338 l 1
 70 338 l 1
229 63 m 1
 271 98 310 174 310 222 c 0
 310 249 288 265 247 267 c 1
 240 225 235 168 229 63 c 1
355 222 m 0
 355 136 263 0 205 0 c 0xdfe0
 193 0 183 10 183 23 c 0
 183 104 194 243 205 293 c 0
 207 303 216 310 227 311 c 2
 236 311 l 2
 313 311 355 279 355 222 c 0
415 45 m 1
 448 46 495 53 510 55 c 0
 513 55 515 56 515 56 c 0
 518 56 519 56 520 57 c 0
 532 57 543 47 543 35 c 0
 543 24 532 13 522 13 c 0xbfe0
 427 0 427 0 405 0 c 2
 393 0 l 2
 381 0 371 10 371 22 c 2
 371 37 l 2
 371 94 379 179 395 285 c 0
 395 306 414 311 493 311 c 2
 521 311 l 2
 546 311 557 304 557 288 c 0
 557 276 546 266 534 266 c 2
 527 266 l 2
 506 267 503 267 495 267 c 2
 459 267 l 2
 458 267 458 267 451 266 c 0
 445 266 441 266 437 265 c 1
 427 200 425 183 423 157 c 1
 516 157 l 2
 528 157 539 147 539 135 c 0
 539 123 528 112 516 112 c 2
 419 112 l 1
 416 89 415 67 415 45 c 1
647 289 m 0
 647 287 646 277 644 260 c 0
 639 215 628 125 623 45 c 0
 624 44 624 45 625 45 c 0
 626 45 626 45 627 45 c 2
 631 45 l 2
 655 45 671 45 701 46 c 2
 710 46 l 2
 722 46 732 36 732 24 c 0
 732 12 723 2 711 1 c 0
 663 0 663 0 649 0 c 0xdfe0
 596 0 577 8 577 31 c 2
 577 32 l 1
 582 124 589 187 603 292 c 0
 604 303 614 311 625 311 c 0
 637 311 647 301 647 289 c 0
EndSplineSet
EndChar

StartChar: uni2426
Encoding: 38 9254 38
Width: 900
VWidth: 0
Flags: W
HStem: -83 45<70 830> 0 44<186.132 263.364 430.887 465.014 610 638.02> 266 45<276.512 329 329 357.862 634 639 640 690.125> 338 45<70 830>
VStem: 25 45<-38 338> 194 45<168.628 233.571> 276 44<53.3627 114.175> 377 44<46.3489 288.395> 388 45<132.802 310.686> 509 44<129.988 310.885> 643 45<55.3202 93.526> 692 47<233.015 264.885> 830 45<-38 338>
LayerCount: 2
Fore
SplineSet
25 383 m 1xfe78
 875 383 l 1
 875 -83 l 1
 25 -83 l 1
 25 383 l 1xfe78
70 338 m 1
 70 -38 l 1
 830 -38 l 1
 830 338 l 1
 70 338 l 1
239 205 m 2
 239 182 260 166 280 150 c 0
 300 134 320 117 320 94 c 0
 320 47 278 0 235 0 c 0
 195 0 144 26 144 47 c 0
 144 59 154 69 166 69 c 0
 178 69 189 62 200 56 c 0
 211 50 223 44 235 44 c 0
 254 44 267 60 276 94 c 0
 276 97 267 106 250 120 c 0
 208 153 194 175 194 205 c 0
 194 252 232 282 328 311 c 0
 329 312 329 312 329 311 c 1
 335 311 l 2
 347 311 358 301 358 289 c 0
 358 274 355 272 326 263 c 0
 293 254 280 249 267 241 c 0
 250 230 240 219 239 210 c 2
 239 205 l 2
433 289 m 0xfef8
 433 276 430 243 427 210 c 0
 424 177 421 144 421 131 c 0
 421 88 425 62 434 49 c 0
 436 46 439 43 440 43 c 0
 475 43 507 158 509 289 c 0
 509 301 519 311 531 311 c 0
 543 311 553 301 553 289 c 0
 553 119 507 0 441 0 c 0
 398 0 377 42 377 131 c 0xff78
 377 169 382 236 388 291 c 0
 389 302 399 311 410 311 c 0
 422 311 433 301 433 289 c 0xfef8
616 101 m 1
 616 97 l 2
 614 91 612 74 610 49 c 1
 616 49 638 61 643 67 c 1
 643 69 l 2
 641 75 635 82 616 101 c 1
644 267 m 2
 640 267 l 1
 639 266 l 1
 634 266 l 1
 634 260 627 197 626 189 c 1
 643 198 686 244 692 260 c 0
 692 261 692 261 691 261 c 0
 676 265 661 267 644 267 c 2
564 28 m 0
 564 32 571 94 578 156 c 0
 585 218 591 281 591 285 c 0
 593 304 608 311 644 311 c 0
 703 311 739 295 739 268 c 0
 739 234 715 204 642 145 c 1
 641 144 l 2
 641 143 641 143 640 143 c 0
 639 143 639 143 638 142 c 1
 655 125 655 125 677 96 c 0
 686 85 688 80 688 69 c 0
 688 37 639 0 595 0 c 0
 576 0 564 11 564 28 c 0
EndSplineSet
EndChar

StartChar: uni2427
Encoding: 39 9255 39
Width: 900
VWidth: 0
Flags: W
HStem: -83 45<70 830> 0 45<415 514.999 624.609 731.547> 13 44<515.139 542.803> 112 45<423 538.718> 267 44<244.157 300.245 437.188 556.797> 338 45<70 830>
VStem: 25 45<-38 338> 310 45<149.866 255.84> 371 44<45 108.977> 603 44<123.247 310.856> 830 45<-38 338>
LayerCount: 2
Fore
SplineSet
25 383 m 1x9fe0
 875 383 l 1
 875 -83 l 1
 25 -83 l 1
 25 383 l 1x9fe0
70 338 m 1
 70 -38 l 1
 830 -38 l 1
 830 338 l 1
 70 338 l 1
229 63 m 1
 271 98 310 174 310 222 c 0
 310 249 288 265 247 267 c 1
 240 225 235 168 229 63 c 1
355 222 m 0
 355 136 263 0 205 0 c 0xdfe0
 193 0 183 10 183 23 c 0
 183 104 194 243 205 293 c 0
 207 303 216 310 227 311 c 2
 236 311 l 2
 313 311 355 279 355 222 c 0
415 45 m 1
 448 46 495 53 510 55 c 0
 513 55 515 56 515 56 c 0
 518 56 519 56 520 57 c 0
 532 57 543 47 543 35 c 0
 543 24 532 13 522 13 c 0xbfe0
 427 0 427 0 405 0 c 2
 393 0 l 2
 381 0 371 10 371 22 c 2
 371 37 l 2
 371 94 379 179 395 285 c 0
 395 306 414 311 493 311 c 2
 521 311 l 2
 546 311 557 304 557 288 c 0
 557 276 546 266 534 266 c 2
 527 266 l 2
 506 267 503 267 495 267 c 2
 459 267 l 2
 458 267 458 267 451 266 c 0
 445 266 441 266 437 265 c 1
 427 200 425 183 423 157 c 1
 516 157 l 2
 528 157 539 147 539 135 c 0
 539 123 528 112 516 112 c 2
 419 112 l 1
 416 89 415 67 415 45 c 1
647 289 m 0
 647 287 646 277 644 260 c 0
 639 215 628 125 623 45 c 0
 624 44 624 45 625 45 c 0
 626 45 626 45 627 45 c 2
 631 45 l 2
 655 45 671 45 701 46 c 2
 710 46 l 2
 722 46 732 36 732 24 c 0
 732 12 723 2 711 1 c 0
 663 0 663 0 649 0 c 0xdfe0
 596 0 577 8 577 31 c 2
 577 32 l 1
 582 124 589 187 603 292 c 0
 604 303 614 311 625 311 c 0
 637 311 647 301 647 289 c 0
EndSplineSet
EndChar

StartChar: uni2428
Encoding: 40 9256 40
Width: 900
VWidth: 0
Flags: W
HStem: -83 45<70 830> 0 45<415 514.999 624.609 731.547> 13 44<515.139 542.803> 112 45<423 538.718> 267 44<244.157 300.245 437.188 556.797> 338 45<70 830>
VStem: 25 45<-38 338> 310 45<149.866 255.84> 371 44<45 108.977> 603 44<123.247 310.856> 830 45<-38 338>
LayerCount: 2
Fore
SplineSet
25 383 m 1x9fe0
 875 383 l 1
 875 -83 l 1
 25 -83 l 1
 25 383 l 1x9fe0
70 338 m 1
 70 -38 l 1
 830 -38 l 1
 830 338 l 1
 70 338 l 1
229 63 m 1
 271 98 310 174 310 222 c 0
 310 249 288 265 247 267 c 1
 240 225 235 168 229 63 c 1
355 222 m 0
 355 136 263 0 205 0 c 0xdfe0
 193 0 183 10 183 23 c 0
 183 104 194 243 205 293 c 0
 207 303 216 310 227 311 c 2
 236 311 l 2
 313 311 355 279 355 222 c 0
415 45 m 1
 448 46 495 53 510 55 c 0
 513 55 515 56 515 56 c 0
 518 56 519 56 520 57 c 0
 532 57 543 47 543 35 c 0
 543 24 532 13 522 13 c 0xbfe0
 427 0 427 0 405 0 c 2
 393 0 l 2
 381 0 371 10 371 22 c 2
 371 37 l 2
 371 94 379 179 395 285 c 0
 395 306 414 311 493 311 c 2
 521 311 l 2
 546 311 557 304 557 288 c 0
 557 276 546 266 534 266 c 2
 527 266 l 2
 506 267 503 267 495 267 c 2
 459 267 l 2
 458 267 458 267 451 266 c 0
 445 266 441 266 437 265 c 1
 427 200 425 183 423 157 c 1
 516 157 l 2
 528 157 539 147 539 135 c 0
 539 123 528 112 516 112 c 2
 419 112 l 1
 416 89 415 67 415 45 c 1
647 289 m 0
 647 287 646 277 644 260 c 0
 639 215 628 125 623 45 c 0
 624 44 624 45 625 45 c 0
 626 45 626 45 627 45 c 2
 631 45 l 2
 655 45 671 45 701 46 c 2
 710 46 l 2
 722 46 732 36 732 24 c 0
 732 12 723 2 711 1 c 0
 663 0 663 0 649 0 c 0xdfe0
 596 0 577 8 577 31 c 2
 577 32 l 1
 582 124 589 187 603 292 c 0
 604 303 614 311 625 311 c 0
 637 311 647 301 647 289 c 0
EndSplineSet
EndChar

StartChar: uni2429
Encoding: 41 9257 41
Width: 900
VWidth: 0
Flags: W
HStem: -83 45<70 830> 0 45<415 514.999 624.609 731.547> 13 44<515.139 542.803> 112 45<423 538.718> 267 44<244.157 300.245 437.188 556.797> 338 45<70 830>
VStem: 25 45<-38 338> 310 45<149.866 255.84> 371 44<45 108.977> 603 44<123.247 310.856> 830 45<-38 338>
LayerCount: 2
Fore
SplineSet
25 383 m 1x9fe0
 875 383 l 1
 875 -83 l 1
 25 -83 l 1
 25 383 l 1x9fe0
70 338 m 1
 70 -38 l 1
 830 -38 l 1
 830 338 l 1
 70 338 l 1
229 63 m 1
 271 98 310 174 310 222 c 0
 310 249 288 265 247 267 c 1
 240 225 235 168 229 63 c 1
355 222 m 0
 355 136 263 0 205 0 c 0xdfe0
 193 0 183 10 183 23 c 0
 183 104 194 243 205 293 c 0
 207 303 216 310 227 311 c 2
 236 311 l 2
 313 311 355 279 355 222 c 0
415 45 m 1
 448 46 495 53 510 55 c 0
 513 55 515 56 515 56 c 0
 518 56 519 56 520 57 c 0
 532 57 543 47 543 35 c 0
 543 24 532 13 522 13 c 0xbfe0
 427 0 427 0 405 0 c 2
 393 0 l 2
 381 0 371 10 371 22 c 2
 371 37 l 2
 371 94 379 179 395 285 c 0
 395 306 414 311 493 311 c 2
 521 311 l 2
 546 311 557 304 557 288 c 0
 557 276 546 266 534 266 c 2
 527 266 l 2
 506 267 503 267 495 267 c 2
 459 267 l 2
 458 267 458 267 451 266 c 0
 445 266 441 266 437 265 c 1
 427 200 425 183 423 157 c 1
 516 157 l 2
 528 157 539 147 539 135 c 0
 539 123 528 112 516 112 c 2
 419 112 l 1
 416 89 415 67 415 45 c 1
647 289 m 0
 647 287 646 277 644 260 c 0
 639 215 628 125 623 45 c 0
 624 44 624 45 625 45 c 0
 626 45 626 45 627 45 c 2
 631 45 l 2
 655 45 671 45 701 46 c 2
 710 46 l 2
 722 46 732 36 732 24 c 0
 732 12 723 2 711 1 c 0
 663 0 663 0 649 0 c 0xdfe0
 596 0 577 8 577 31 c 2
 577 32 l 1
 582 124 589 187 603 292 c 0
 604 303 614 311 625 311 c 0
 637 311 647 301 647 289 c 0
EndSplineSet
EndChar
